<?xml version="1.0" encoding="utf-8"?>
<!-- Generator: Adobe Illustrator 21.1.0, SVG Export Plug-In . SVG Version: 6.00 Build 0)  -->
<svg version="1.1" id="Layer_1" xmlns="http://www.w3.org/2000/svg" xmlns:xlink="http://www.w3.org/1999/xlink" x="0px" y="0px"
	 viewBox="0 0 500 500" style="enable-background:new 0 0 500 500;" xml:space="preserve">
<g>
	<path d="M457.9,252.7c-9.5,11.1-19.5,20.9-30.1,30.1c-27.2,23.7-56.9,43.6-90.1,57.9c-23.3,10-47.4,16.6-72.7,18.7
		c-27.2,2.2-53.7-1.5-79.7-9.8c-33.7-10.8-64-28-92.1-49.2C75,286.6,58,271.6,43,254.5c-0.4-0.4-0.8-0.9-1.4-1.6
		c3.8-4.1,7.4-8.3,11.4-12.2c33.7-33.4,71.7-60.6,116-78.4c29.2-11.7,59.6-17.7,91.1-16c27.2,1.4,53.1,8.4,78,19.2
		c37.8,16.4,71.1,39.8,100.9,68.1C445.5,239.6,451.5,246.2,457.9,252.7z M249.7,166.3c-48,0-86.1,38.7-87.1,85.1
		c-1.1,48,37.2,88.2,85.4,89.1c49.6,0.9,88.8-39.4,88.8-86.7C336.7,205.4,297.8,166.3,249.7,166.3z M167.9,321.8
		c-16.5-20.4-24.9-43.4-24.7-69.2c0.2-25.8,9-48.6,25.3-68.6c-37.9,16.6-70.7,40.4-100.2,68.9C88.3,275.4,143.2,313.4,167.9,321.8z
		 M330.6,183.9c33.4,38.9,34.5,97.6,1.3,137.7c37.3-16.6,69.8-40.2,99.1-68.5C415.2,233.4,350.9,189,330.6,183.9z"/>
	<path d="M64.1,192.5c-5.3,5.3-10.4,10.4-15.8,15.8c-12.1-17.2-24.3-34.6-36.6-52c0.1-0.1,0.2-0.3,0.4-0.4
		C29.5,168.1,46.9,180.4,64.1,192.5z"/>
	<path d="M450.6,207.9c-5.3-5.3-10.5-10.5-15.7-15.7c17.2-12.1,34.6-24.3,51.9-36.6c0.1,0.1,0.2,0.2,0.3,0.3
		C474.9,173.3,462.7,190.7,450.6,207.9z"/>
	<path d="M318.7,84.4c0.3,0.7,0.7,1.3,0.8,2c0.3,5.4,0.5,10.9,0.8,16.5c-4.2,1.1-8.3,2.1-13,3.3c0.7-4.1,1.5-7.9,2-11.7
		c0.4-3.1,1.7-5.6,3.6-8c3.9-5,7.7-10.1,11.6-15.3c0,15.1,0,30,0,45.3c-4.9-1.4-9.2-2.7-13.8-4c-1.5,5.1-3,10-4.5,15.1
		c-1-0.3-1.9-0.5-3-0.8c1.5-5.1,2.9-10,4.4-15.1c-4.2-1.3-8.3-2.6-12.7-3.9c10.4-17.5,20.7-34.8,31.1-52.1c0.3,3,0.5,5.7-1.3,8.5
		c-8.4,13.5-16.4,27.2-24.5,40.9c-0.1,0.2-0.2,0.5-0.3,1c7.1,2.1,14.1,4.2,21.5,6.4c0-10.7,0-20.9,0-31.9
		C320.2,82.2,319.5,83.3,318.7,84.4c-3.2,3.6-6.7,7-6,12.6C314.7,92.8,316.7,88.6,318.7,84.4z M311.2,101.6c6.3-0.7,6.5-0.9,5.2-4.9
		c-0.6,0.9-1.2,1.8-1.7,2.6c-1.1-0.5-1.9-0.8-2.8-1.3C311.6,99.3,311.4,100.5,311.2,101.6z"/>
	<path d="M260.3,81.2c0,15-3.8,28.3-10.9,41.4c-0.9-1.6-1.6-2.8-2.2-4c-3.6-7.1-6-14.6-7.5-22.3c-0.2-0.9,0-2.5,0.6-2.9
		C246.8,89.3,253.4,85.5,260.3,81.2z"/>
	<path d="M170.4,70.6c1.3,2,3,3.9,3.9,6.1c2.1,5.7,4.2,11.5,5.7,17.4c2.1,8.6,5,16.6,11.4,22.9c0.8,0.8,1.7,1.5,2.5,2.1
		c0.4,0.3,0.9,0.5,1.6,0.8c1.2-4.9,1.6-9.8,0.6-14.5c-1.7-7.7-3.9-15.3-6.2-22.8c-1.6-5-3.1-10-3.1-15.3c2.8,5.8,6,11.4,8.3,17.3
		c2.3,6.1,4.4,12.3,5.6,18.7c1.6,8.7-0.9,16.7-6.7,23.7c0.6-2.1,1.1-4.3,1.7-6.6c-5-1.2-9.1-3.5-12.5-7.1c-4.4-4.7-6-10.5-7-16.6
		c-1-6.4-2.2-12.9-3.6-19.3c-0.5-2.3-1.6-4.4-2.4-6.6C170.1,70.8,170.2,70.7,170.4,70.6z"/>
	<path d="M238.7,76.9c1.3-12.4,4.7-23.4,10.4-33.7c0.3-0.1,0.6-0.1,0.8-0.2c2,4.8,4.2,9.5,6,14.4c2.7,7.3,2.6,7.4-4,11.4
		C247.7,71.4,243.4,74,238.7,76.9z"/>
	<path d="M433,121.6c1.1-2.1,2-4.2,3.3-6.2c2.3-3.7,5-4.2,8.8-1.8c-0.1,0.1-0.1,0.3-0.2,0.4c-0.6,0.9-1.2,1.7-1.8,2.6
		c1.1-0.4,2.5-0.5,3.1-1.3c1.5-1.7,2.8-3.6,3.9-5.6c0.9-1.6,0.8-1.6,3-0.7c-1.3,4.3-3.6,7.8-7.6,10c-2.8,1.6-5,0.1-5.6-4.4
		c-1.1,1.9-2.1,3.2-2.8,4.7c-1.4,3.1-2.4,6.4-3.8,9.4c-1.6,3.6-3.7,4.8-6.1,4c-2.5-0.9-4.2-4.6-3.5-7.7c0.2-0.7,0.4-1.4,0.5-2.2
		c-0.2-0.1-0.4-0.2-0.6-0.3c-0.8,1.4-1.9,2.7-2.3,4.2c-0.9,3.7-1.4,7.5-2,11.2c-1.9,10.9-7,19.6-17.3,24.6c-0.3,0.1-0.6,0.3-0.9,0.4
		c-0.2,0.1-0.3,0-0.8,0c-0.2-0.6-0.5-1.2-0.7-1.8c0.2-0.3,0.2-0.5,0.4-0.6c11.5-5.1,16-14.7,17.3-26.6c0.3-3.1,0.9-6.2,2-9.2
		c1.8-5,5.3-6.4,10.3-4.7C430.8,120.7,431.9,121.2,433,121.6c-1.3,0.3-2.6,0.5-3.9,0.9c-3.1,0.9-4.1,5-1.7,7.1
		c0.5,0.4,2.2,0.3,2.4-0.1C431,127,432,124.3,433,121.6z"/>
	<path d="M351.3,132.2c0-5.4,4.3-9.7,9.7-9.7c5.4,0,9.7,4.4,9.7,9.8c0,5.3-4.5,9.8-9.8,9.7C355.6,141.9,351.3,137.6,351.3,132.2z"/>
	<path d="M147.5,132.3c-0.1,5.3-4.6,9.8-9.8,9.7c-5.3-0.1-9.8-4.7-9.6-9.9c0.1-5.4,4.6-9.7,9.9-9.6
		C143.3,122.5,147.6,126.9,147.5,132.3z"/>
	<path d="M108.7,159.9c-0.6,2.2-1.8,2.1-3.1,1.5c-5.4-2.7-10.1-6.2-14.2-10.6c-3.7-4-6.6-8.5-8.3-13.6c-3.6-11-10.9-18.6-20.9-23.9
		c-1.1-0.6-2.8-1-1.7-2.6c0.3-0.5,2.2-0.6,3-0.2c10.3,5.1,18.1,12.7,21.9,23.7c3.7,10.9,11,18.5,20.9,24
		C107.2,158.7,108,159.4,108.7,159.9z"/>
	<path d="M102.7,163.9c-0.6,2.3-1.9,2.2-3,1.4c-4.1-2.8-8.4-5.5-12-8.9c-4.5-4.1-7.5-9.4-9.4-15.2c-3.5-10.7-10.7-18.1-20.5-23.3
		c-0.5-0.3-1.2-0.4-1.5-0.8c-0.4-0.5-0.7-1.4-0.5-2c0.1-0.4,1-0.7,1.6-0.7c0.4,0,1,0.3,1.4,0.5c10.4,5.2,18.2,12.8,21.9,23.9
		c3.6,10.6,10.5,18.2,20.2,23.5C101.6,162.8,102.2,163.4,102.7,163.9z"/>
	<path d="M96.8,167.9c-0.7,2-1.9,2.1-3.1,1.3c-3.7-2.6-7.5-4.9-10.8-8c-4.6-4.2-7.6-9.5-9.5-15.4c-3.5-10.6-10.5-18-20.2-23.2
		c-0.5-0.3-1.2-0.4-1.5-0.8c-0.5-0.6-0.7-1.3-1-2c0.8-0.2,1.6-0.6,2.4-0.6c0.4,0,0.9,0.3,1.4,0.6c10.2,5.4,17.8,13.1,21.6,24.3
		c3.4,10,9.7,17.4,18.9,22.4C95.6,166.7,96.2,167.4,96.8,167.9z"/>
	<path d="M454.7,111.9c0.8,0.3,1.5,0.6,2.3,0.9c-2,5.5-5.4,9.5-10.6,11.9c-1.7,0.8-2.8,1.9-3.7,3.5c-3.6,6.5-8.7,11.7-15.3,15.2
		c-1.8,1-3,2.3-3.9,4.1c-3.9,7.3-8.9,13.7-16.1,18c-0.5,0.3-1,0.6-1.6,0.9c-0.3-0.3-0.5-0.6-0.7-0.9c-0.2-0.4-0.4-0.7-0.6-1.3
		c8.5-4.8,13.8-12.2,18.1-20.6c0.4-0.7,1.3-1.3,2-1.7c7.4-3.7,12.8-9.4,16.7-16.6c0.5-1,1.6-1.9,2.7-2.4
		C449.1,120.9,452.6,117.1,454.7,111.9z"/>
	<path d="M458.3,116c0.8,0.3,1.5,0.5,2.1,0.8c0,0.3,0.1,0.6,0,0.8c-2.2,5.7-6.3,9.5-11.6,12.3c-0.9,0.5-1.8,1.2-2.3,2.1
		c-4,7.4-9.6,13.1-17.1,17c-0.9,0.5-1.8,1.6-2.3,2.5c-3.9,7.4-8.9,13.8-16.3,18.3c-0.4-0.7-0.9-1.3-1.4-2.1
		c7.6-4.6,12.5-11.4,16.3-19.2c0.3-0.6,1-1.2,1.6-1.5c7.8-3.8,13.4-9.7,17.3-17.3c0.3-0.6,0.9-1.4,1.5-1.6
		C451.8,125.7,455.9,121.9,458.3,116z"/>
	<path d="M176.3,54.6c4.1,5.2,6.8,11,7.7,17.5c0.4,3.2,0.5,6.4,0.2,9.6c-0.8,8.7,0.8,16.7,5.5,24.1c0.5,0.7,0.9,1.5,1.1,2.4
		c-7.2-7.2-11.8-15.6-10.9-26.2c0.7-7.9,1-15.7-1.9-23.4C177.5,57.4,176.9,56,176.3,54.6z"/>
	<path d="M126.4,100.2c3.3,0,5.8,2.5,5.8,5.8c0,3.3-2.7,6-6,5.9c-3.2,0-5.8-2.7-5.8-5.9C120.4,102.7,123.1,100.1,126.4,100.2z"/>
	<path d="M366.7,105.9c0-3.3,2.4-5.7,5.8-5.7c3.4,0,6,2.6,6,5.9c-0.1,3.2-2.7,5.8-5.9,5.8C369.2,111.9,366.6,109.3,366.7,105.9z"/>
	<path d="M238.9,84.8c-0.8-2.7,0-4.2,2.2-5.5c5.9-3.4,11.7-7.1,17.5-10.6c1.5,2.6,0.5,4-1.8,5.3C250.9,77.3,245,81,238.9,84.8z"/>
	<path d="M381.6,89.4c-2.3,0.1-4-1.6-4.1-3.9c-0.1-2.4,1.7-4.2,4.1-4.2c2.2,0,4,1.8,4,4C385.6,87.6,383.8,89.4,381.6,89.4z"/>
	<path d="M117.5,81.3c2.3,0.1,3.9,1.8,3.9,4.1c0,2.2-1.8,4-4.1,4c-2.3,0-4.2-2-4.1-4.3C113.4,82.9,115.2,81.2,117.5,81.3z"/>
	<path d="M190.3,243.5c19,0,37.8,0,56.8,0c0,6.7,0,13.1,0,19.9c-18.8,0-37.6,0-56.8,0c2,14.6,8.7,26.2,19.2,35.8
		c10.6,9.7,23,14.8,37.6,14.6c0,6.8,0,13.3,0,20.4c-4.4-0.5-8.6-0.9-12.9-1.5c-38.8-6.2-61.8-41.5-64.8-71
		c-4.1-40.4,23.5-80,67.3-87.2c35.5-5.8,80.6,13,91.8,60c9.2,38.8-9.4,72.7-38.7,89.9c-10.9,6.4-22.9,8.7-35.4,9.5
		c-0.4,0-0.8,0-1.4-0.1c0-30,0-59.9,0-89.9c17.5,0,35.1,0,52.8,0c0,6.5,0,13,0,19.7c-10.9,0-21.8,0-32.9,0c0,15.5,0,30.9,0,46.5
		c1.5-0.7,2.9-1.2,4.2-1.9c23.3-12,34.4-31.5,33.8-57.3c-0.6-26.3-22.8-51.1-49-55.6c-18.7-3.2-36.1-0.3-51.3,11.6
		C198.9,216.1,192.6,228.5,190.3,243.5z"/>
</g>
</svg>
