<?xml version="1.0" encoding="utf-8"?>
<!-- Generator: Adobe Illustrator 21.1.0, SVG Export Plug-In . SVG Version: 6.00 Build 0)  -->
<svg version="1.1" id="Layer_1" xmlns="http://www.w3.org/2000/svg" xmlns:xlink="http://www.w3.org/1999/xlink" x="0px" y="0px"
	 viewBox="0 0 500 500" style="enable-background:new 0 0 500 500;" xml:space="preserve">
<style type="text/css">
	.st0{fill:url(#SVGID_1_);}
	.st1{display:none;}
	.st2{display:inline;}
	.st3{display:inline;clip-path:url(#SVGID_4_);fill:url(#SVGID_5_);}
	.st4{display:inline;clip-path:url(#SVGID_4_);fill:url(#SVGID_6_);}
	.st5{display:inline;clip-path:url(#SVGID_4_);fill:url(#SVGID_7_);}
</style>
<linearGradient id="SVGID_1_" gradientUnits="userSpaceOnUse" x1="249.8462" y1="489.0117" x2="249.8462" y2="9.4818">
	<stop  offset="9.214744e-03" style="stop-color:#0C0E5C"/>
	<stop  offset="0.2805" style="stop-color:#151D6B"/>
	<stop  offset="0.8513" style="stop-color:#284997"/>
	<stop  offset="1" style="stop-color:#2E58A6"/>
</linearGradient>
<path class="st0" d="M218.1,251.1c-0.4,23-19.3,41.3-42.2,40.9s-41.3-19.3-40.9-42.2s19.3-41.3,42.2-40.9
	C200.2,209.2,218.5,228.1,218.1,251.1z M254.5,49.1c-8.5,3.7-12.3,13.6-8.6,22.1c3.7,8.5,13.6,12.3,22.1,8.6
	c8.5-3.7,12.3-13.6,8.6-22.1C272.8,49.2,262.9,45.4,254.5,49.1z M257.3,10.4c-5.8,2.5-8.4,9.2-5.8,15s9.2,8.4,15,5.8
	c5.8-2.5,8.4-9.2,5.8-15C269.8,10.5,263.1,7.9,257.3,10.4z M19.4,327.7c-5.8,2.5-8.4,9.2-5.8,15c2.5,5.8,9.2,8.4,15,5.8
	s8.4-9.2,5.8-15C31.8,327.8,25.1,325.1,19.4,327.7z M225.5,153.5c-17.3-0.3-31.5,13.5-31.8,30.7c-0.3,17.3,13.5,31.5,30.7,31.8
	c17.3,0.3,31.5-13.5,31.8-30.7C256.5,168,242.7,153.8,225.5,153.5z M122.6,328.2c14.4,0.3,26.3-11,26.6-25.4
	c0.3-14.4-11-26.3-25.4-26.6c-14.4-0.3-26.3,11-26.6,25.4S108.3,327.9,122.6,328.2z M249.7,148c14.4,0.3,26.3-11,26.6-25.4
	s-11-26.3-25.4-26.6c-14.4-0.3-26.3,11-26.6,25.4C224,135.8,235.4,147.7,249.7,148z M84.6,342.5c8.3-8.6,8.1-22.4-0.5-30.7
	c-8.6-8.3-22.4-8.1-30.7,0.5s-8.1,22.4,0.5,30.7C62.5,351.4,76.3,351.1,84.6,342.5z M249.6,280c-22.9,2.1-39.7,22.3-37.7,45.1
	c2.1,22.9,22.3,39.7,45.1,37.7c22.9-2.1,39.7-22.3,37.7-45.1C292.6,294.8,272.4,278,249.6,280z M438,207.9
	c-8.7-3.1-18.3,1.5-21.4,10.2c-3.1,8.7,1.5,18.3,10.2,21.4c8.7,3.1,18.3-1.5,21.4-10.2C451.2,220.6,446.7,211,438,207.9z
	 M479.6,212.1c-5.9-2.1-12.4,1-14.5,6.9s1,12.4,6.9,14.5c5.9,2.1,12.4-1,14.5-6.9C488.6,220.7,485.5,214.2,479.6,212.1z
	 M177.4,466.9c-5.9-2.1-12.4,1-14.5,6.9s1,12.4,6.9,14.5c5.9,2.1,12.4-1,14.5-6.9S183.3,469,177.4,466.9z M312.2,237.6
	c-17.2,1.5-29.9,16.7-28.3,33.9c1.5,17.2,16.7,29.9,33.9,28.3s29.9-16.7,28.3-33.9C344.6,248.7,329.4,236,312.2,237.6z M207.8,404.7
	c14.3-1.4,24.8-14.1,23.4-28.4c-1.4-14.3-14.1-24.8-28.4-23.4c-14.3,1.4-24.8,14.1-23.4,28.4C180.8,395.6,193.5,406.1,207.8,404.7z
	 M378.2,264.7c14.3-1.4,24.8-14.1,23.4-28.4c-1.4-14.3-14.1-24.8-28.4-23.4c-14.3,1.4-24.8,14.1-23.4,28.4
	C351.2,255.6,363.9,266.1,378.2,264.7z M166.4,448.1c8.9,8,22.7,7.2,30.7-1.7c8-8.9,7.2-22.7-1.7-30.7c-8.9-8-22.7-7.2-30.7,1.7
	C156.7,426.4,157.5,440.1,166.4,448.1z"/>
<g class="st1">
	<defs>
		<path id="SVGID_2_" d="M661.3,615.8h-792V140.3c0,0,189-30.5,406.2,1.4c197.4,29,386.2,24.8,386.2,24.8L661.3,615.8z"/>
	</defs>
	<linearGradient id="SVGID_3_" gradientUnits="userSpaceOnUse" x1="-130.6559" y1="371.5175" x2="661.6775" y2="371.5175">
		<stop  offset="0.1509" style="stop-color:#3680A7"/>
		<stop  offset="1" style="stop-color:#0C0E5C"/>
	</linearGradient>
	<use xlink:href="#SVGID_2_"  style="display:inline;overflow:visible;fill:url(#SVGID_3_);"/>
	<clipPath id="SVGID_4_" class="st2">
		<use xlink:href="#SVGID_2_"  style="overflow:visible;"/>
	</clipPath>
	<linearGradient id="SVGID_5_" gradientUnits="userSpaceOnUse" x1="-142.9008" y1="318.4587" x2="1220.3441" y2="318.4587">
		<stop  offset="0.1509" style="stop-color:#3680A7"/>
		<stop  offset="1" style="stop-color:#0C0E5C"/>
	</linearGradient>
	<polygon class="st3" points="-142.9,228.3 1220.3,543.8 1057.6,93.1 -142.9,93.1 	"/>
	<linearGradient id="SVGID_6_" gradientUnits="userSpaceOnUse" x1="-238.7768" y1="502.6499" x2="971.7931" y2="502.6499">
		<stop  offset="0.1509" style="stop-color:#3680A7"/>
		<stop  offset="1" style="stop-color:#0C0E5C"/>
	</linearGradient>
	<polygon class="st4" points="-195.9,214.3 971.8,485.7 958.6,791 -238.8,368.4 	"/>
	<linearGradient id="SVGID_7_" gradientUnits="userSpaceOnUse" x1="-314.6982" y1="646.062" x2="773.5671" y2="646.062">
		<stop  offset="0.1509" style="stop-color:#3680A7"/>
		<stop  offset="1" style="stop-color:#0C0E5C"/>
	</linearGradient>
	<polygon class="st5" points="-189.7,353.8 773.6,692.8 426.4,938.3 -314.7,652.5 	"/>
</g>
</svg>
