<svg xmlns="http://www.w3.org/2000/svg" viewBox="0 0 492 492">
  <defs>
    <style>
      .a {
        fill: #333;
      }

      .b {
        fill: #a0c638;
      }
    </style>
  </defs>
  <title>ntv</title>
  <path class="a" d="M500.23,251.71,260.29,11.77a6.08,6.08,0,0,0-8.58,0L11.77,251.71a6.08,6.08,0,0,0,0,8.58L251.71,500.23a6.08,6.08,0,0,0,8.58,0L500.23,260.29A6.08,6.08,0,0,0,500.23,251.71Zm-336.7,133c0,3.33-1.93,4.13-4.29,1.78L71.91,299.17a6.08,6.08,0,0,1,0-8.58l87.33-87.33c2.36-2.36,4.29-1.56,4.29,1.78Zm125.16-94.38c0,3.34-1.93,4.14-4.29,1.78l-66.6-66.6a6.07,6.07,0,0,1,0-8.57l66.6-66.6c2.36-2.36,4.29-1.56,4.29,1.77Z" transform="translate(-10 -10)"/>
  <path class="b" d="M260.29,33a6.08,6.08,0,0,0-8.58,0L33,251.71a6.08,6.08,0,0,0,0,8.58L52.71,280a6.07,6.07,0,0,0,8.57,0L162.47,178.77a6.08,6.08,0,0,1,8.58,0l27.54,27.54a6.08,6.08,0,0,0,8.58,0l80.26-80.26a6.07,6.07,0,0,1,8.57,0L450.32,280.36a6.07,6.07,0,0,0,8.57,0L479,260.29a6.08,6.08,0,0,0,0-8.58Z" transform="translate(-10 -10)"/>
</svg>
