<svg xmlns="http://www.w3.org/2000/svg" viewBox="0 0 581.68 543.62">
  <defs>
    <style>
      .a {
        fill: #013ba6;
      }
    </style>
  </defs>
  <title>Peace-Accelerators</title>
  <path class="a" d="M439.73,438.76A133.85,133.85,0,0,1,387,428q0,7.59-.62,15.16a149,149,0,0,0,106.49.12,123.09,123.09,0,0,0,.67-15.71A133.92,133.92,0,0,1,439.73,438.76Z" transform="translate(-7.04 -32.24)"/>
  <path class="a" d="M352.05,427.37a134.56,134.56,0,0,1-106.74.7A122.61,122.61,0,0,0,246.62,444a149,149,0,0,0,104.58-.78A121,121,0,0,0,352.05,427.37Z" transform="translate(-7.04 -32.24)"/>
  <path class="a" d="M297.88,155.06c-82.15,0-149,66.84-149,149a148.91,148.91,0,0,0,61.5,120.52,158.54,158.54,0,0,1,1.06-17.28,134.48,134.48,0,0,1-48.28-103.24c0-74.28,60.43-134.71,134.71-134.71s134.71,60.43,134.71,134.71a134.45,134.45,0,0,1-47.22,102.34,160.39,160.39,0,0,1,1.49,17.09,148.87,148.87,0,0,0,60-119.43C446.87,221.9,380,155.06,297.88,155.06Z" transform="translate(-7.04 -32.24)"/>
  <path class="a" d="M110.3,359.54A134.63,134.63,0,0,1,139.87,324a163.8,163.8,0,0,1-1.56-17A150.08,150.08,0,0,0,80,402.15a123.48,123.48,0,0,0,13.11,9.31A134.43,134.43,0,0,1,110.3,359.54Z" transform="translate(-7.04 -32.24)"/>
  <path class="a" d="M301.45,310.23a134,134,0,0,1,67.14-18.1,136.66,136.66,0,0,1,54.72,11.55,122.22,122.22,0,0,0-1.52-16.05c-4.69-1.78-9.51-3.33-14.42-4.65A149,149,0,0,0,274.6,542.32a122,122,0,0,0,14-7.11,134.78,134.78,0,0,1,12.84-225Z" transform="translate(-7.04 -32.24)"/>
  <path class="a" d="M497.83,352.4a148.5,148.5,0,0,0-39.57-44.74,161.2,161.2,0,0,1-1,17.56,135.25,135.25,0,0,1,28.2,34.32h0A134.71,134.71,0,0,1,333.94,557c-3.6-1-7.14-2.08-10.62-3.32a158.42,158.42,0,0,1-13.95,9.76,150.23,150.23,0,0,0,59.69,12.41A149,149,0,0,0,497.83,352.4Z" transform="translate(-7.04 -32.24)"/>
  <path class="a" d="M156,438.76c-74.28,0-134.71-60.43-134.71-134.71A134.46,134.46,0,0,1,69.42,201a162,162,0,0,1-1.41-17A148.88,148.88,0,0,0,7,304.05C7,386.2,73.88,453,156,453a148.14,148.14,0,0,0,55.24-10.62q-.78-7.55-.87-15.14A133.92,133.92,0,0,1,156,438.76Z" transform="translate(-7.04 -32.24)"/>
  <path class="a" d="M528.13,184.2a157.72,157.72,0,0,1-1.26,17.21,134.51,134.51,0,0,1-.18,205.43,160.35,160.35,0,0,1,1.6,17,148.84,148.84,0,0,0-.16-239.59Z" transform="translate(-7.04 -32.24)"/>
  <path class="a" d="M443.3,52.17a148.87,148.87,0,0,0-134.25-7.38,161.22,161.22,0,0,1,14.64,9.56A135.91,135.91,0,0,1,369,46.52a134,134,0,0,1,67.13,18c64.33,37.14,86.45,119.69,49.31,184a134.25,134.25,0,0,1-29,34.92,160.27,160.27,0,0,1,1.63,17.07,148.51,148.51,0,0,0,39.72-44.85C538.91,184.55,514.45,93.25,443.3,52.17Z" transform="translate(-7.04 -32.24)"/>
  <path class="a" d="M236.29,157a134.59,134.59,0,0,1,52-83.8,123.71,123.71,0,0,0-14.62-6.68,148.94,148.94,0,0,0-53,98.35A158.57,158.57,0,0,1,236.29,157Z" transform="translate(-7.04 -32.24)"/>
  <path class="a" d="M216,167.68a148.91,148.91,0,0,0-112.25-3.15,124,124,0,0,0-.91,15.76A134.71,134.71,0,0,1,202,177.43,158.77,158.77,0,0,1,216,167.68Z" transform="translate(-7.04 -32.24)"/>
  <path class="a" d="M159.6,64.54a134.72,134.72,0,0,1,200,93.19,158.89,158.89,0,0,1,15.46,7.42A148.34,148.34,0,0,0,356,106.71C314.91,35.56,223.61,11.09,152.46,52.17S56.85,184.55,97.93,255.7A148.47,148.47,0,0,0,138.19,301a160.88,160.88,0,0,1,.92-17.54,135,135,0,0,1-28.82-34.85C73.16,184.23,95.28,101.68,159.6,64.54Z" transform="translate(-7.04 -32.24)"/>
  <path class="a" d="M492.2,164.61a148.86,148.86,0,0,0-112.58,3.13,160.36,160.36,0,0,1,14.43,9.58,134.64,134.64,0,0,1,99.22,3.13A123.6,123.6,0,0,0,492.2,164.61Z" transform="translate(-7.04 -32.24)"/>
  <path class="a" d="M192.09,296.78a135.45,135.45,0,0,1,35.08-4.65,133.08,133.08,0,0,1,44.53,7.68,160.55,160.55,0,0,1,14.37-9.69A147.9,147.9,0,0,0,188.39,283a150.64,150.64,0,0,0-14.6,4.72,122.72,122.72,0,0,0-.69,15.69A137,137,0,0,1,192.09,296.78Z" transform="translate(-7.04 -32.24)"/>
  <path class="a" d="M370.87,388.33a147.93,147.93,0,0,0-49.57-76.78,123.32,123.32,0,0,0-14.45,6.88,134.74,134.74,0,0,1,36.77,175.82c-37.14,64.33-119.69,86.44-184,49.31a133.81,133.81,0,0,1-62.76-81.8c-.92-3.41-1.69-6.84-2.34-10.28a160.7,160.7,0,0,1-15.62-7.87A151,151,0,0,0,83,465.46a149,149,0,1,0,287.83-77.13Z" transform="translate(-7.04 -32.24)"/>
  <path class="a" d="M307.26,279.53a134.94,134.94,0,0,1,51.85-83.33,124.56,124.56,0,0,0-14.38-6.84,149,149,0,0,0-53,97.56A157.79,157.79,0,0,1,307.26,279.53Z" transform="translate(-7.04 -32.24)"/>
  <path class="a" d="M348.07,268a149.84,149.84,0,0,0,25.76-62.12,122.6,122.6,0,0,0-13.15-8.76,135.27,135.27,0,0,1-35,75.85A160.33,160.33,0,0,1,348.07,268Z" transform="translate(-7.04 -32.24)"/>
  <path class="a" d="M285.45,341.42a134.85,134.85,0,0,1-38,61.45,123.75,123.75,0,0,0-2.15,20.38,149.91,149.91,0,0,0,47-59A159.58,159.58,0,0,1,285.45,341.42Z" transform="translate(-7.04 -32.24)"/>
  <path class="a" d="M257.21,312.54a134.15,134.15,0,0,1-65.12-1.22,136.25,136.25,0,0,1-18.94-6.59,121.5,121.5,0,0,0,1.55,16q6.69,2.49,13.69,4.38a149.87,149.87,0,0,0,38.81,5.14,146.65,146.65,0,0,0,14.68-.74A161.28,161.28,0,0,1,257.21,312.54Z" transform="translate(-7.04 -32.24)"/>
  <path class="a" d="M423.33,304.32a135.18,135.18,0,0,1-83.87,8.36A160,160,0,0,1,353.7,329.5a147.28,147.28,0,0,0,14.86.76,149.87,149.87,0,0,0,38.81-5.14,152.11,152.11,0,0,0,15.31-5A124.41,124.41,0,0,0,423.33,304.32Z" transform="translate(-7.04 -32.24)"/>
  <path class="a" d="M307.66,330.52q-4.26-3.76-8.88-7.15-3.13,2.08-6.15,4.36A149.2,149.2,0,0,0,352,424.38,123,123,0,0,0,349.55,404,134.69,134.69,0,0,1,307.66,330.52Z" transform="translate(-7.04 -32.24)"/>
  <path class="a" d="M292.1,243.43a149.73,149.73,0,0,0-41.6-54.51,121.56,121.56,0,0,0-14,7.15A135.16,135.16,0,0,1,284.9,264.8,159.73,159.73,0,0,1,292.1,243.43Z" transform="translate(-7.04 -32.24)"/>
  <path class="a" d="M271.06,273.9a135.15,135.15,0,0,1-36-77A123,123,0,0,0,222,206.16a149.8,149.8,0,0,0,26.69,63.1A158.78,158.78,0,0,1,271.06,273.9Z" transform="translate(-7.04 -32.24)"/>
</svg>
