<?xml version="1.0" encoding="utf-8"?>
<!-- Generator: Adobe Illustrator 22.1.0, SVG Export Plug-In . SVG Version: 6.00 Build 0)  -->
<svg version="1.1" id="Layer_1" xmlns="http://www.w3.org/2000/svg" xmlns:xlink="http://www.w3.org/1999/xlink" x="0px" y="0px"
	 viewBox="0 0 500 500" style="enable-background:new 0 0 500 500;" xml:space="preserve">
<style type="text/css">
	.st0{fill:#050505;}
	.st1{fill:#DE0316;}
	.st2{fill:#FBFBFB;}
</style>
<g>
	<path class="st0" d="M250.9,501.1c-82.6,0-165.3,0-247.9,0.1c-2.5,0-3-0.5-3-3C0.1,333.1,0.1,168,0,3c0-2.5,0.5-3,3-3
		c165.3,0.1,330.6,0.1,495.8,0c2.5,0,3,0.5,3,3c-0.1,165-0.1,330.1,0,495.1c0,2.5-0.5,3-3,3C416.2,501,333.6,501.1,250.9,501.1z
		 M199.8,344.8c-0.1-0.2-0.1-0.4-0.2-0.6c-0.1,0.1-0.2,0.2-0.4,0.3c0.2,0.1,0.3,0.2,0.5,0.4c8.6,16.1,16.7,32.4,26,48.1
		c8.1,13.7,7.1,24.3-7.3,32.8c-6.4,3.8-5.8,6.9-0.3,13c6.2,6.7,20.9,8.5,15.2,25.7c8.3-15.5-4.9-18.4-10.5-23.7
		c-7.2-6.9-8.8-10.8,0.2-17c4.4-3,11.3-9.2,10.5-12.1C226.8,387.3,216.4,364.4,199.8,344.8z M198.3,342.6c0,0.2,0.1,0.4,0.1,0.6
		c0.1-0.1,0.2-0.1,0.3-0.2C198.6,342.9,198.4,342.8,198.3,342.6c10.9,2.7,21.8,5.4,32.8,8c3.8,0.9,7.6,0.9,8.9,6.3
		c2.9,11.8,6.7,23.3,9.8,35c7.9,29.1,15.6,58.2,23.5,87.7c1.2-24.2,4-47.7,18.3-68.2c1.6-2.3,2.7-2.7,5.3-1.6
		c18.5,7.3,37.6,10.5,62.6,7.5c-53.8,0.8-68.2-7.4-99.7-55.3c2.5,6.9,4.3,11.9,6.2,17.3c-9.7-0.5-21.1-5.8-18.2-13.4
		c6.8-17.3-5.8-32.2-3-46.5c3.6-18.8,5.6-38.5,18.7-55.7c34.2-45.2,93.7-49.2,131.6-20.5c29.3,22.3,38.5,55.7,32.7,92.5
		c-0.7,4.6-3.1,10.9-1,13.6c9.2,12.1,5.1,20.8-6.1,26.9c-13.8,7.6-19.1,24.1-33.6,30.5c-0.2,0.1-0.4,1-0.2,1.2
		c11.3,12,14.5,27.3,17.7,43c2.4-6.2-4.8-12.4,2.5-18.2c96-76.7,113.1-231.1,35.3-327C382,31.1,303.6,0.8,208.5,16.3
		C44.4,43-41.1,243.9,52.3,381.4c11,16.1,29.2,27.8,33.3,46.5c4.6-16,9.6-35,15.5-53.7c2.3-7.3,0.6-17.4,9.1-21
		c12.8-5.4,26.3-9.2,39.5-13.7c2.5-0.9,5.2-0.9,5.2-5.2c0-4.2-1.9-5.3-5.2-6.4c-11.9-3.8-21.2-11.1-25.8-22.9
		c-4.5-11.6-9-23.4-11.8-35.4c-2.8-12-3.6-24.4-5.1-35c-1.6,27.4,7.1,59.7,24.9,86.1c-6.6-4.4-16.9,13.3-16.3-6.3
		c0.5-14.4-8.5-9.6-15.3-8.8c-7.4,0.8-14.3,1.9-8.8-9c8.4-16.7-0.3-22.3-15.1-24.7c-3.7-0.6-7.3-2.3-9.4-2.9
		c-0.2-14.4,26.2-13.5,17.5-30.6c-6.4-12.7-21.9-15.1-36.2-17.5c11.9-8.3,23-16.2,34.2-23.9c2.3-1.6,2.5-2.7,1.3-5.3
		c-6.6-14.4-18.3-24.6-30.2-35.7c15.4-1.2,29.8-2.6,44.2-3.3c7.1-0.3,10.2-1.3,7.9-9.8c-3-11.1-6.6-21.9-12.8-32
		c13.8,1.9,26.4,5.7,37.8,12.8c2.4,1.5,3.1,0.8,4.2-1.5c6.5-14.1,8.1-29.3,9.9-47c10.7,13.5,20.1,25.2,29.3,37
		c2.1,2.7,3,3.6,5.6,0.2c10.5-14,24.7-23,40.8-30.8c-0.5,16.6-0.9,32.5,3.4,48.1c1,3.8,2.1,4.2,5.7,2.8c11.8-4.6,23.7-8.7,36.7-13.4
		c-8.8,15.1-16.9,29.1-25.3,43.5c14.1,2.1,27.7,4.2,42.1,6.4c-11.3,10.6-21.9,20.5-32.8,30.7c11.8,5,23.1,9.8,34.8,14.8
		c-14,11-29.9,16.7-47.8,22.4c10.6,6.8,19.9,12.7,30,19.3c-7.3,3.2-14,7.2-21.2,9.1c-7,1.8-6.6,4.3-5.1,10.3
		c0.9,3.5,12.1,11.8-1.7,12.9c-15.4,1.1-13,6.5-5,14.7c1,1,1.9,2.2,4.3,5c-19.2-2.4-25.1,16.1-39.1,21.2c-2,0.7-5.6-0.3-5.6,3.8
		C193.8,336.9,192.9,341.2,198.3,342.6z M323.9,300.9c-0.2,8.8-5.5,13-12.4,14.3c-10.5,2.1-21.2,3.3-31.9,4.5c-3,0.3-4,1-4.1,3.9
		c-0.1,16.2,9.3,25,23.6,28.4c14.3,3.4,26.3-1.9,32.9-15.1C338.7,323.7,335.6,311.5,323.9,300.9z M357.6,302.2
		c-10.3,11.9-14.6,24.6-3.4,38.3c10.9,13.4,31.8,14.7,44.4,3.3c6.8-6.2,10.7-14.1,8.3-22.8c-0.5-1.9-9.7-1.1-14.8-2.1
		C379.5,316.4,364.4,318.8,357.6,302.2z M120.7,210.5c0.9,3.1-0.5,10,4.3,9.3c12.3-1.9,24.2-2.8,36.4,0.3c0.8,0.2,2.5-0.9,2.8-1.8
		c3.1-9,1.5-17.2-5.3-23.9c-6.9-6.8-15.4-8.5-24.4-4.7C125.8,193.4,121.3,200.4,120.7,210.5z M190.6,196.9
		c-5.7,0.3-12.6,0.1-13.8,10.3c-1.4,12.3,7.2,8,13,8.9c8.8,1.3,17.6,2.7,26.4,4.2c2.3,0.4,3.5,0.5,4.4-2.3
		C224.5,206.4,211.9,197,190.6,196.9z M139.2,438.2c6.4-3.6,7.4-6.9,1.1-11.5c-9.9-7.2-20.1-13.6-11.8-29.5
		c8.1-15.6,13.3-32.7,19.8-49.1c-5.2,9.8-11.2,19.6-13.9,30.2c-4.1,16-22.5,33.6,3,48.1C142.1,429.1,146.1,432.7,139.2,438.2z
		 M152.4,359.9c-2.6,17.4-1.8,47.3,0,77.2C152.4,407.2,152.4,377.4,152.4,359.9z M204.4,421.1c-0.9-21.6-1.6-43.3-6.9-64.3
		C199.8,378.2,202.1,399.6,204.4,421.1z"/>
	<path class="st1" d="M198.3,342.6c-5.4-1.4-4.5-5.7-4.5-9.7c0-4.1,3.6-3.1,5.6-3.8c14-5.1,19.9-23.6,39.1-21.2
		c-2.4-2.8-3.3-4-4.3-5c-8-8.2-10.5-13.5,5-14.7c13.8-1,2.6-9.3,1.7-12.9c-1.6-6.1-1.9-8.5,5.1-10.3c7.2-1.9,13.9-5.8,21.2-9.1
		c-10.1-6.5-19.4-12.5-30-19.3c17.9-5.7,33.8-11.4,47.8-22.4c-11.6-4.9-23-9.8-34.8-14.8c10.9-10.2,21.5-20.1,32.8-30.7
		c-14.5-2.2-28-4.3-42.1-6.4c8.4-14.4,16.5-28.4,25.3-43.5c-13,4.7-24.9,8.9-36.7,13.4c-3.5,1.4-4.6,1-5.7-2.8
		c-4.2-15.6-3.9-31.5-3.4-48.1c-16,7.8-30.3,16.9-40.8,30.8c-2.6,3.4-3.5,2.5-5.6-0.2c-9.2-11.9-18.6-23.5-29.3-37
		c-1.8,17.8-3.4,32.9-9.9,47c-1.1,2.3-1.8,3-4.2,1.5c-11.4-7.1-24-10.9-37.8-12.8c6.2,10.2,9.8,20.9,12.8,32
		c2.3,8.5-0.8,9.5-7.9,9.8c-14.4,0.7-28.8,2.1-44.2,3.3c11.9,11.2,23.5,21.3,30.2,35.7c1.2,2.6,1,3.7-1.3,5.3
		c-11.2,7.7-22.3,15.6-34.2,23.9c14.3,2.4,29.8,4.8,36.2,17.5c8.7,17.1-17.7,16.2-17.5,30.6c2.1,0.7,5.6,2.3,9.4,2.9
		c14.7,2.4,23.5,8,15.1,24.7c-5.5,10.9,1.5,9.8,8.8,9c6.9-0.8,15.8-5.6,15.3,8.8c-0.6,19.6,9.7,2,16.3,6.3
		c-17.7-26.3-26.5-58.7-24.9-86.1c1.5,10.6,2.3,23.1,5.1,35c2.9,12.1,7.3,23.8,11.8,35.4c4.6,11.8,13.9,19.1,25.8,22.9
		c3.3,1.1,5.2,2.2,5.2,6.4c0,4.2-2.7,4.3-5.2,5.2c-13.2,4.5-26.7,8.2-39.5,13.7c-8.5,3.6-6.8,13.8-9.1,21
		C95.2,393,90.2,412,85.6,427.9c-4.1-18.8-22.4-30.4-33.3-46.5C-41.1,243.9,44.4,43,208.5,16.3C303.6,0.8,382,31.1,442.4,105.7
		c77.8,95.9,60.7,250.3-35.3,327c-7.3,5.8-0.1,12-2.5,18.2c-3.2-15.6-6.4-31-17.7-43c-0.2-0.2,0-1.1,0.2-1.2
		c14.6-6.4,19.8-23,33.6-30.5c11.2-6.1,15.3-14.8,6.1-26.9c-2.1-2.7,0.3-9,1-13.6c5.8-36.8-3.4-70.2-32.7-92.5
		c-37.8-28.8-97.3-24.8-131.6,20.5c-13,17.2-15,36.9-18.7,55.7c-2.8,14.4,9.8,29.2,3,46.5c-3,7.6,8.5,12.9,18.2,13.4
		c-1.9-5.4-3.7-10.3-6.2-17.3c31.5,47.9,45.8,56.1,99.7,55.3c-25,3-44.1-0.2-62.6-7.5c-2.6-1-3.7-0.6-5.3,1.6
		c-14.3,20.4-17.1,44-18.3,68.2c-7.9-29.5-15.7-58.6-23.5-87.7c-3.2-11.7-7-23.2-9.8-35c-1.3-5.4-5.1-5.3-8.9-6.3
		C220.1,348,209.2,345.3,198.3,342.6L198.3,342.6z"/>
	<path class="st2" d="M323.9,300.9c11.6,10.7,14.8,22.8,8.2,36c-6.6,13.3-18.6,18.6-32.9,15.1c-14.4-3.4-23.8-12.2-23.6-28.4
		c0-2.9,1-3.6,4.1-3.9c10.7-1.1,21.3-2.4,31.9-4.5C318.5,313.8,323.7,309.7,323.9,300.9z"/>
	<path class="st2" d="M357.6,302.2c6.8,16.6,21.9,14.2,34.5,16.7c5.1,1,14.3,0.2,14.8,2.1c2.3,8.8-1.5,16.7-8.3,22.8
		c-12.6,11.4-33.5,10-44.4-3.3C343,326.8,347.3,314.1,357.6,302.2z"/>
	<path class="st2" d="M120.7,210.5c0.5-10.1,5.1-17.1,13.8-20.8c8.9-3.8,17.4-2.1,24.4,4.7c6.8,6.7,8.4,14.9,5.3,23.9
		c-0.3,0.9-2.1,2-2.8,1.8c-12.1-3.1-24.1-2.3-36.4-0.3C120.2,220.5,121.7,213.7,120.7,210.5z"/>
	<path class="st2" d="M190.6,196.9c21.3,0.1,33.9,9.5,30,21.1c-0.9,2.8-2.1,2.7-4.4,2.3c-8.8-1.5-17.6-2.9-26.4-4.2
		c-5.8-0.8-14.4,3.4-13-8.9C177.9,197,184.9,197.2,190.6,196.9z"/>
	<path class="st1" d="M199.8,344.8c16.6,19.6,26.9,42.5,33.7,66.8c0.8,2.9-6.1,9.1-10.5,12.1c-9,6.1-7.3,10.1-0.2,17
		c5.5,5.3,18.7,8.2,10.5,23.7c5.7-17.2-9.1-19-15.2-25.7c-5.6-6-6.1-9.2,0.3-13c14.4-8.5,15.4-19.1,7.3-32.8
		c-9.2-15.7-17.3-32-26-48.1L199.8,344.8z"/>
	<path class="st1" d="M139.2,438.2c6.9-5.5,2.9-9.1-1.8-11.9c-25.5-14.5-7.1-32.1-3-48.1c2.7-10.6,8.7-20.4,13.9-30.2
		c-6.5,16.4-11.7,33.5-19.8,49.1c-8.2,15.9,2,22.4,11.8,29.5C146.6,431.4,145.6,434.6,139.2,438.2z"/>
	<path class="st1" d="M152.4,359.9c0,17.6,0,47.4,0,77.2C150.6,407.2,149.7,377.3,152.4,359.9z"/>
	<path class="st1" d="M204.4,421.1c-2.3-21.4-4.6-42.9-6.9-64.3C202.9,377.8,203.5,399.5,204.4,421.1z"/>
	<path class="st1" d="M198.2,342.7c0.2,0.1,0.3,0.2,0.5,0.3c-0.1,0.1-0.2,0.1-0.3,0.2C198.4,343,198.3,342.8,198.2,342.7
		C198.3,342.6,198.2,342.7,198.2,342.7z"/>
	<path class="st1" d="M199.7,344.9c-0.2-0.1-0.3-0.2-0.5-0.4c0.1-0.1,0.2-0.2,0.4-0.3c0.1,0.2,0.1,0.4,0.2,0.5
		C199.8,344.8,199.7,344.9,199.7,344.9z"/>
</g>
</svg>
