<?xml version="1.0" encoding="utf-8"?>
<!-- Generator: Adobe Illustrator 21.1.0, SVG Export Plug-In . SVG Version: 6.00 Build 0)  -->
<svg version="1.1" id="Layer_1" xmlns="http://www.w3.org/2000/svg" xmlns:xlink="http://www.w3.org/1999/xlink" x="0px" y="0px"
	 viewBox="0 0 500 500" style="enable-background:new 0 0 500 500;" xml:space="preserve">
<style type="text/css">
	.st0{display:none;clip-path:url(#SVGID_2_);}
	.st1{fill:#DFAD22;}
	.st2{display:inline;fill:#459426;}
	.st3{display:inline;fill:#CA0817;}
	.st4{display:inline;fill:#FD2919;}
	.st5{display:inline;fill:#52BDC7;}
	.st6{display:inline;fill:#FDBE13;}
	.st7{display:inline;fill:#96072E;}
	.st8{display:inline;fill:#DFAD22;}
	.st9{display:inline;fill:#FD4F1A;}
	.st10{display:inline;fill:#FB1327;}
	.st11{display:inline;fill:#E70E5C;}
	.st12{fill:#132950;}
	.st13{display:inline;fill:#132950;}
	.st14{display:inline;fill:#204D87;}
	.st15{display:inline;fill:#58B129;}
	.st16{display:inline;fill:#4088BD;}
	.st17{display:inline;fill:#FE8C1A;}
	.st18{display:inline;fill:#33682E;}
	.st19{display:inline;fill:#BD8719;}
	.st20{clip-path:url(#SVGID_4_);}
	.st21{display:none;fill:#DFAD22;}
	.st22{fill:#459426;}
	.st23{fill:#CA0817;}
	.st24{fill:#FD2919;}
	.st25{fill:#52BDC7;}
	.st26{fill:#FDBE13;}
	.st27{fill:#96072E;}
	.st28{fill:#FD4F1A;}
	.st29{fill:#FB1327;}
	.st30{fill:#E70E5C;}
	.st31{display:none;fill:#132950;}
	.st32{fill:#204D87;}
	.st33{fill:#58B129;}
	.st34{fill:#4088BD;}
	.st35{fill:#FE8C1A;}
	.st36{fill:#33682E;}
	.st37{fill:#BD8719;}
	.st38{clip-path:url(#SVGID_6_);}
	.st39{clip-path:url(#SVGID_8_);}
	.st40{clip-path:url(#SVGID_10_);}
	.st41{clip-path:url(#SVGID_12_);}
	.st42{clip-path:url(#SVGID_14_);}
	.st43{clip-path:url(#SVGID_16_);}
	.st44{clip-path:url(#SVGID_18_);}
	.st45{display:none;fill:none;stroke:#08105A;stroke-width:5;stroke-miterlimit:10;}
	.st46{stroke:#FFFFFF;stroke-miterlimit:10;}
</style>
<g>
	<defs>
		<path id="SVGID_1_" d="M381.5,302.3c-0.9,0.1-1.7,0.2-2.6,0.2c-8.5,0-17,0.1-25.6,0.1c-14.3,0-28.6-0.1-42.9-0.1
			c-3.4,0-3.4,0-3.4,3.5c0,5,0,10.1,0,15.1c0.1,15.7,0.1,31.5,0.2,47.2c0,2,0.2,4,0.2,5.9c0,1.2,0,2.4,0,4.1
			c-0.8-0.4-1.4-0.5-1.7-0.8c-2.8-2.7-5.6-5.4-8.3-8.1c-4.3-4.3-8.6-8.6-12.9-12.9c-4.6-4.6-9.2-9.3-13.9-13.9
			c-5.5-5.5-11.1-11.1-16.7-16.6c-0.3-0.3-0.6-0.5-1.2-0.9c-1.5,1.4-3,2.8-4.4,4.2c-5.5,5.5-11.1,11.1-16.6,16.7
			c-3.9,3.9-7.5,8-11.4,12c-5,5.1-10,10-15,15.1c-1.4,1.5-2.8,3-4.2,4.5c-0.2,0.2-0.3,0.4-0.6,0.6c-0.7,0.5-1.4,0.2-1.5-0.7
			c-0.1-0.9,0-1.9,0-2.9c0-10.4,0.1-20.7,0.1-31.1c0-10.9,0-21.8-0.1-32.7c0-2.2,0.1-4.5,0.1-6.7c0-0.4-0.1-0.8-0.2-1.4
			c-2.5-0.1-4.9-0.2-7.3-0.2c-9.2,0-18.4-0.1-27.6-0.1c-5.5,0-11,0.2-16.5,0.2c-6.1,0-12.3-0.1-18.4-0.1c-1.4,0-2.7,0-4.1,0
			c-0.5,0-1.2-0.3-1.3-0.7c-0.1-0.4,0.2-1,0.5-1.4c0.8-0.9,1.7-1.6,2.5-2.4c7-7,14-14,21.1-20.9c6.7-6.5,13.4-13,20.1-19.5
			c2.7-2.6,5.3-5.3,7.9-8c0.2-0.2,0.4-0.5,0.7-0.9c-0.4-0.5-0.7-1-1.1-1.4c-3-3-5.9-6-8.9-9c-3.6-3.6-7.2-7-10.8-10.6
			c-3.3-3.3-6.6-6.7-9.9-10c-4.5-4.6-9-9.1-13.5-13.7c-2.4-2.4-4.8-4.7-7.1-7.1c-0.5-0.5-0.9-1.3-1.6-2.3c1.1-0.2,1.7-0.4,2.3-0.3
			c4.7,0.1,9.4,0.2,14,0.3c5.3,0.1,10.6,0,16,0.1c3.9,0,7.8,0.2,11.6,0.2c1.8,0,3.7,0,5.5,0c7.3,0,14.6,0.1,21.9,0.1
			c1,0,1.9,0,2.9,0c1.2,0,1.6-0.4,1.6-1.6c0-0.7-0.1-1.5-0.1-2.2c0-9.5,0-19.1,0-28.6c0-5.4,0.2-10.9,0.2-16.3
			c0-3.9-0.1-7.8-0.1-11.6c0-3.7,0-7.4,0-11c0-1.1-0.1-2.3,0.8-3.5c17.6,17.7,35.1,35.3,52.7,53c0.9-0.7,1.7-1.3,2.4-2
			c6.3-6.3,12.6-12.6,19-18.9c5.8-5.8,11.7-11.6,17.6-17.4c4-3.9,7.9-7.9,11.9-11.8c0.6-0.6,1.3-1,2.1-1.6c1,2.1,0.6,4,0.6,5.9
			c0,8.7,0,17.5,0,26.2c0,2.9-0.1,5.9-0.1,8.8c0,2.3,0,4.6,0,6.9c0.1,7.8,0.1,15.5,0.2,23.3c0,0.5,0,1.1,0,1.6c0,1,0.5,1.5,1.5,1.5
			c1.6,0,3.1,0,4.7,0c6.7,0,13.3,0,20,0.1c7.6,0,15.1,0.1,22.7,0.2c8,0,15.9,0,23.9,0c0.5,0,0.9,0.1,1.4,0.1c0.5,1.3-0.4,1.8-1,2.5
			c-4,4-8.1,8.1-12.2,12.1c-3.7,3.6-7.3,7.3-11,11c-6.6,6.6-13.2,13.2-19.8,19.8c-2.3,2.3-4.5,4.6-6.7,6.9c-1,1-1,1.2,0,2.2
			c4.7,4.7,9.4,9.4,14.2,14.1c1,1,2.5,1.7,3.3,2.8c0.8,1.3,1.7,2.2,2.8,3.2c8.5,8.4,17,16.7,25.5,25.1c1.6,1.6,3.2,3.1,4.8,4.7
			c0.5,0.5,0.9,1.1,1.3,1.7C381.7,302,381.6,302.1,381.5,302.3z M179.5,278.9c1.1,0.1,1.5,0.1,2,0.1c2.6-0.1,5.2-0.2,7.7-0.2
			c2.6,0,5.2,0.2,7.8,0.2c3.2,0.1,6.4,0.1,9.6,0.1c2.5,0,5,0,7.6,0c2.1,0,4.2,0,6.3,0c1.8,0.1,2.3,0.6,2.3,2.4c0,2.2,0,4.5,0,6.7
			c0,6.9-0.1,13.8-0.1,20.6c0,2.2,0,4.5,0,6.7c0,2,0.1,4,0.2,6.4c0.6-0.4,0.9-0.6,1.1-0.8c2.1-2.1,4.3-4.2,6.4-6.3
			c6-6,12-12,18.1-18.1c1.2-1.2,2.5-2.3,3.7-3.6c0.7-0.7,1.3-0.6,2-0.1c0.4,0.3,0.7,0.6,1.1,0.9c3.1,3.2,6.2,6.4,9.3,9.5
			c2.3,2.3,4.7,4.4,7,6.6c3.6,3.5,7.2,7.1,10.8,10.6c0.4,0.4,0.9,0.7,1.7,1.4c0.1-1.1,0.2-1.8,0.2-2.5c0-4.2,0-8.3,0-12.5
			c0-6.3,0-12.5,0-18.8c0-2.3-0.1-4.5-0.1-6.8c0-2,0-2,2.1-2.1c0.9-0.1,1.9,0.1,2.8,0.1c3.4,0,6.8-0.1,10.2-0.1
			c8.9,0,17.7,0,26.6,0.1c0.2,0,0.4-0.2,0.9-0.4c-1.9-2-3.6-3.9-5.5-5.7c-4.6-4.6-9.3-9.2-14-13.7c-1.6-1.6-3.3-3.3-4.9-4.9
			c-1.5-1.5-3.1-3-4.6-4.7c-1-1-0.9-1.6,0.1-2.7c0.8-0.8,1.7-1.6,2.5-2.4c3.8-3.7,7.6-7.4,11.4-11.2c3.6-3.6,7.2-7.3,10.7-10.9
			c1.3-1.3,2.5-2.6,4.1-4.3c-7.4-0.6-14.4,0-21.3-0.1c-7-0.1-14-0.1-21.1-0.2c-0.1-0.8-0.2-1.3-0.2-1.8c0-2.5,0-4.9,0-7.4
			c0-10.8,0-21.6-0.1-32.3c0-0.4-0.1-0.7-0.3-1.5c-10.1,10.2-19.8,20.1-29.8,30.2c-3.8-3.1-6.9-6.6-10.2-9.9
			c-3.4-3.3-6.7-6.8-10.1-10.1c-3.3-3.2-6.5-6.7-10.2-10.1c-0.1,0.8-0.2,1.2-0.2,1.6c0,4-0.1,8-0.1,12.1c0,8.7,0,17.5,0,26.2
			c0,2.6-0.1,2.8-2.7,2.9c-3.9,0.1-7.9-0.1-11.8-0.1c-8.7-0.1-17.5-0.1-26.2-0.1c-0.6,0-1.2,0.1-1.9,0.1c0.3,1.3,1.2,2,1.9,2.8
			c2.6,2.6,5.3,5.1,7.9,7.7c5,5,9.9,10,14.8,15c1.4,1.4,2.8,2.8,4.1,4.3c0.8,0.9,0.8,1.4-0.1,2.3c-0.6,0.6-1.2,1.1-1.8,1.7
			c-3.5,3.5-6.9,7-10.4,10.4c-5.1,5-10.2,10-15.3,15C180.6,277.5,180.2,278.1,179.5,278.9z"/>
	</defs>
	<clipPath id="SVGID_2_">
		<use xlink:href="#SVGID_1_"  style="display:none;overflow:visible;"/>
	</clipPath>
	<g id="XMLID_1_" class="st0">
		<path id="XMLID_17_" class="st1" d="M272.7,227.2C281.8,232.6,265.4,219.7,272.7,227.2L416,104.7C400.8,88.5,374,65,354.4,54
			L272.7,227.2z"/>
		<path id="XMLID_15_" class="st2" d="M265.9,245.4l191.1-72c-8.3-20.5-27-51.7-41-68.6L272.7,227.2c9.2,7.7,12.2,37-1.9,4.5"/>
		<path id="XMLID_16_" class="st3" d="M457,173.3l-179.1,63.3l-4.7,10.7l197.6,2.7c-0.4-22.4-4-50.6-10.9-71.1"/>
		<path id="XMLID_12_" class="st4" d="M235.7,228.5c-1,8.9-2.8,17.4-5.6,25.5l222.7,73.4c5.9-16.2,15-39.1,16.9-57
			c0.5-4.4,0.8-16.1,1-20.5l-234.7-25.8C236.1,224.1,235.8,227,235.7,228.5"/>
		<path id="XMLID_8_" class="st5" d="M253.3,241.5c-4.3,9.3-9.7,17.9-16,25.6l178.5,126.3c14.1-16.2,28.3-45.8,37.1-65.9
			L253.3,241.5z"/>
		<path id="XMLID_13_" class="st6" d="M273.2,247.3c-7.5,7.4-16,13.8-25.1,19l102.5,176.4c19.7-10.5,49.6-33.4,65.2-49.3
			L273.2,247.3z"/>
		<path id="XMLID_9_" class="st7" d="M350.5,442.7l-77.8-188.4c-9.5,4.1-19.6,7-30,8.6l30,201c22.2-2.7,51-10.2,70.8-19.2"/>
		<path id="XMLID_91_" class="st8" d="M244.2,223.3c8.8,5.9,16.7,12.8,23.7,20.7l151.9-136.2C405.6,90.7,377,66,358.3,54
			L244.2,223.3z"/>
		<path id="XMLID_7_" class="st9" d="M270.7,257.2c-5.8,0.2-11.7,0-17.6-0.6c-4.8-0.5-9.5-1.3-14-2.4l-45.5,201
			c10.1,2.6,27.2,6.2,37.9,7.4c11.9,1.3,29.8,1.9,41.3,1.2L270.7,257.2z"/>
		<path id="XMLID_6_" class="st10" d="M238.1,225.1c10.4,1.8,21.3,2.9,30.5,7.1L358.3,54C339,44.7,303.2,32.6,281,29.4L238.1,225.1z
			"/>
		<path id="XMLID_5_" class="st11" d="M264.4,259.3l-28.6-14.5L123.9,421c17.8,12.9,48.1,27.3,69.6,34.3L264.4,259.3z"/>
		<path id="XMLID_4_" class="st12" d="M253.3,205.4c10.1-2-10.7,5.2,0,5.8l32-178.1c-22.7-1.8-71.6,3.7-92.7,8.6L253.3,205.4z"/>
		<path id="XMLID_92_" class="st13" d="M241.8,234.7c10.2-2.5,20.8-3.8,31.3-3.6L281,29.4c-22.3-1-66.5,1.2-88,7L241.8,234.7z"/>
		<path id="XMLID_2_" class="st14" d="M235.2,242.8c8.6-5.4,18.6-15.6,28.4-18.7l-71-182.4c-21.1,6.3-49.1,15.7-67.1,27.8
			L235.2,242.8z"/>
		<path id="XMLID_18_" class="st15" d="M237.1,258.7c6.3-8.5,13.7-16.2,22-22.8L125.5,69.5C108,83,82.6,110,69.8,128.3L237.1,258.7z
			"/>
		<path id="XMLID_10_" class="st16" d="M241.9,259.9c2.8-10.4,7-20.2,12.2-29.2L69.8,128.3c-11.4,18.8-24,54.5-29.3,76.6
			L241.9,259.9z"/>
		<path id="XMLID_11_" class="st17" d="M232.1,242.4L67.8,359.5c12.1,18.6,38.9,47.3,56.1,61.5l129.4-154.9
			C245.2,259.2,238.1,251.2,232.1,242.4"/>
		<path id="XMLID_14_" class="st18" d="M242.6,234.4c0.2-1.9,0.5-3.8,0.8-5.6L40.5,205c-0.8,4.6-0.9,14.6-1.4,19.3
			c-1.9,17.9-1,44.3,1.4,61.5l202.1-25C241.7,252.2,241.7,243.3,242.6,234.4"/>
		<path id="XMLID_3_" class="st19" d="M250.2,260.5c-5-9.4-8.8-19.6-11.2-30.2L40.5,285.8c4.5,22.3,16.3,54.4,27.2,73.8L250.2,260.5
			z"/>
	</g>
</g>
<g>
	<defs>
		<path id="SVGID_3_" d="M367.3,360.2c0,2.3,0,4.4,0,6.4c0.1,4.1,0.1,8.2,0.2,12.2c0.1,2.1,0.2,2.1,2.3,2.1
			c9.1-0.1,18.3-0.1,27.4-0.1c9.1,0,18.3,0.1,27.4,0.2c1.7,0,3.5-0.1,5.2,0c1.9,0.1,2.2,0.6,2.3,2.5c0.1,7.6,0.2,15.1,0.3,22.7
			c0,0.4,0.1,0.8,0,1.1c-0.1,1.4-0.4,1.7-1.8,1.8c-2.5,0.1-5,0.1-7.5,0.1c-6.8,0-13.6,0.1-20.4,0.1c-5.8,0-11.6-0.2-17.5-0.2
			c-5.1,0-10.1,0.1-15.2,0.1c-2.2,0-2.4,0.3-2.4,2.5c0.1,7.3,0.3,14.5,0.2,21.8c0,2.4-0.6,4.7-2,6.8c-2.8,4.5-6.5,7.7-11.5,9.4
			c-1.3,0.5-2.8,0.6-4.2,0.6c-3.1,0.1-6.2,0.1-9.3,0.1c-0.6,0-1.2,0-1.8,0c-1.1,0-1.7-0.4-1.8-1.6c-0.1-1.3-0.2-2.6-0.2-3.8
			c-0.1-14.8-0.1-29.6-0.1-44.5c0-5.5,0-11-0.1-16.6c-0.2-14.9-0.3-29.8-0.5-44.7c0-1.8,0-3.6-0.1-5.4c-0.1-1.7,0.5-2.4,2.2-2.4
			c1.7,0,3.3,0.1,5,0.1c9,0,18,0.1,27,0.1c6.6,0,13.3-0.1,19.9-0.1c6.9,0,13.8,0.1,20.6,0.1c8.3,0,16.6,0,24.9,0
			c5.1,0,10.1,0.1,15.2,0.2c1.8,0,2.2,0.4,2.2,2.3c0.1,3,0.1,6,0.1,9.1c0.1,4.8,0.2,9.5,0.3,14.3c0,2.2-0.2,2.6-2.4,2.6
			c-5.6,0-11.2,0-16.8,0c-5.1,0-10.3,0-15.4,0c-7.6,0-15.1,0-22.7,0c-3.7,0-7.4,0-11.1,0c-4.9,0-9.8,0-14.7,0
			C369.7,360,368.6,360.1,367.3,360.2z"/>
	</defs>
	<clipPath id="SVGID_4_">
		<use xlink:href="#SVGID_3_"  style="overflow:visible;"/>
	</clipPath>
	<g id="XMLID_173_" class="st20">
		<path id="XMLID_192_" class="st21" d="M275,224.8C285.1,230.8,266.9,216.5,275,224.8L433.9,89c-16.8-18-46.6-44.1-68.3-56.3
			L275,224.8z"/>
		<path id="XMLID_191_" class="st22" d="M267.4,244.9L479.3,165c-9.3-22.7-30-57.3-45.4-76.1L275,224.8c10.2,8.6,13.5,41.1-2.2,4.9"
			/>
		<path id="XMLID_190_" class="st23" d="M479.3,165l-198.6,70.1l-5.2,11.9l219.1,3c-0.4-24.9-4.5-56.1-12.1-78.8"/>
		<path id="XMLID_189_" class="st24" d="M233.9,226.2c-1.1,9.8-3.1,19.3-6.2,28.3l247,81.4c6.5-17.9,16.7-43.4,18.8-63.2
			c0.5-4.9,0.9-17.9,1.1-22.8l-260.3-28.7C234.4,221.3,234.1,224.6,233.9,226.2"/>
		<path id="XMLID_188_" class="st25" d="M253.5,240.6c-4.8,10.3-10.8,19.8-17.8,28.4l197.9,140c15.6-18,31.4-50.8,41.1-73.1
			L253.5,240.6z"/>
		<path id="XMLID_187_" class="st26" d="M275.5,247c-8.3,8.2-17.7,15.3-27.9,21.1l113.7,195.6c21.8-11.6,55-37.1,72.3-54.7
			L275.5,247z"/>
		<path id="XMLID_186_" class="st27" d="M361.3,463.7L275,254.8c-10.5,4.5-21.7,7.8-33.3,9.5L275,487.3
			c24.6-2.9,56.6-11.4,78.5-21.3"/>
		<path id="XMLID_185_" class="st1" d="M243.4,220.4c9.7,6.5,18.6,14.2,26.3,23l168.4-151c-15.8-19-47.5-46.4-68.2-59.7L243.4,220.4
			z"/>
		<path id="XMLID_184_" class="st28" d="M272.8,258.1c-6.4,0.2-13,0-19.6-0.7c-5.3-0.6-10.5-1.5-15.6-2.6l-50.5,222.9
			c11.2,2.9,30.2,6.9,42.1,8.2c13.2,1.4,33,2.1,45.8,1.4L272.8,258.1z"/>
		<path id="XMLID_183_" class="st29" d="M236.6,222.4c11.5,2,23.6,3.2,33.8,7.8l99.5-197.6C348.5,22.4,308.8,9,284.2,5.5
			L236.6,222.4z"/>
		<path id="XMLID_182_" class="st30" d="M265.8,260.4l-31.7-16L110,439.6c19.8,14.3,53.3,30.3,77.2,38.1L265.8,260.4z"/>
		<path id="XMLID_181_" class="st31" d="M253.5,200.6c11.2-2.3-11.9,5.7,0,6.5L289,9.5c-25.1-2-79.4,4.1-102.8,9.5L253.5,200.6z"/>
		<path id="XMLID_180_" class="st12" d="M240.7,233.1c11.3-2.8,23-4.2,34.7-4l8.8-223.6c-24.7-1.1-73.7,1.4-97.5,7.8L240.7,233.1z"
			/>
		<path id="XMLID_179_" class="st32" d="M233.4,242.1c9.5-6,20.7-17.3,31.5-20.8L186.2,19c-23.4,7-54.4,17.4-74.4,30.9L233.4,242.1z
			"/>
		<path id="XMLID_178_" class="st33" d="M235.5,259.6c7-9.5,15.2-17.9,24.4-25.2l-148-184.5c-19.5,15-47.6,44.9-61.7,65.2
			L235.5,259.6z"/>
		<path id="XMLID_177_" class="st34" d="M240.9,261.1c3.1-11.5,7.7-22.4,13.5-32.4L50.1,115.1c-12.7,20.8-26.6,60.4-32.5,85
			L240.9,261.1z"/>
		<path id="XMLID_176_" class="st35" d="M230,241.7L47.8,371.5c13.4,20.6,43.1,52.4,62.2,68.2l143.5-171.7
			C244.5,260.2,236.6,251.4,230,241.7"/>
		<path id="XMLID_175_" class="st36" d="M241.7,232.7c0.2-2.1,0.5-4.2,0.8-6.3L17.6,200.1c-0.9,5.1-0.9,16.2-1.5,21.5
			c-2.1,19.9-1.1,49.2,1.5,68.1L241.7,262C240.7,252.5,240.6,242.7,241.7,232.7"/>
		<path id="XMLID_174_" class="st37" d="M250.1,261.7c-5.6-10.5-9.8-21.7-12.5-33.5l-220,61.6c5,24.7,18.1,60.3,30.2,81.8
			L250.1,261.7z"/>
	</g>
</g>
<g>
	<defs>
		<path id="SVGID_5_" d="M74.9,87.6c3.2,0,6,0,8.9,0c2.4,0,4.8,0.2,7.2,0.3c4.5,0.1,9-0.1,13.5,0.2c5.4,0.4,10.8-0.1,16.2,0.1
			c4.5,0.2,8.9,0.2,13.4,0.3c1.2,0,2.4,0,3.6,0.1c1.5,0,2-0.4,2-2c0.1-4.2,0-8.5,0-12.7c0-3.2-0.1-6.5,0.2-9.7
			c0.4-4.4,2.6-8,5.8-10.9c2.5-2.4,5.6-3.7,8.9-4.7c0.3-0.1,0.7,0,1.1,0c4.1,0.1,8.3,0.1,12.4,0.3c1.9,0.1,2.2,0.4,2.2,2.3
			c0,10.6-0.1,21.2,0,31.8c0,7.8,0.1,15.6,0.1,23.4c0,6.3-0.2,12.5-0.2,18.8c0,7,0.1,14.1,0.1,21.1c0,4.5,0,9.1,0,13.6
			c0,1.1,0.2,2.3,0.2,3.4c0,1.6-0.4,2.3-2.1,2.3c-3.2,0.1-6.5,0.1-9.7,0.1c-8.6-0.1-17.2-0.2-25.8-0.3c-7.7-0.1-15.4-0.1-23.1-0.2
			c-12.9-0.1-25.8-0.3-38.8-0.4c-5.3,0-10.6,0-15.8-0.1c-3.4,0-3.5-0.3-3.5-3.6c0.1-5,0.1-10,0.1-15c0-2.6,0-5.1,0-7.7
			c0-1.9,0.2-2.1,2-2.1c3.9,0,7.7,0.1,11.6,0.2c6.6,0,13.3,0,19.9,0c4.1,0,8.1,0.2,12.2,0.3c6.7,0.1,13.5,0.2,20.2,0.3
			c6.5,0.1,13,0.2,19.5,0.2c2.1,0,2.6-0.4,2.6-2.5c0-5.2,0-10.4,0-15.6c0-0.2,0-0.3,0-0.5c-0.1-1.4-0.5-1.8-2-1.9
			c-3.8-0.1-7.6-0.1-11.3-0.1c-5.8-0.1-11.6-0.2-17.4-0.3c-3.2-0.1-6.5-0.1-9.7-0.2c-7.4-0.1-14.8-0.2-22.2-0.3
			c-2.4,0-2.7-0.4-2.7-2.8c0-5.7,0.1-11.3,0.1-17c0-1.9-0.1-3.8,0-5.7C74.5,89.5,74.7,88.7,74.9,87.6z"/>
	</defs>
	<clipPath id="SVGID_6_">
		<use xlink:href="#SVGID_5_"  style="overflow:visible;"/>
	</clipPath>
	<g id="XMLID_153_" class="st38">
		<path id="XMLID_172_" class="st21" d="M275,224.8C285.1,230.8,266.9,216.5,275,224.8L433.9,89c-16.8-18-46.6-44.1-68.3-56.3
			L275,224.8z"/>
		<path id="XMLID_171_" class="st22" d="M267.4,244.9L479.3,165c-9.3-22.7-30-57.3-45.4-76.1L275,224.8c10.2,8.6,13.5,41.1-2.2,4.9"
			/>
		<path id="XMLID_170_" class="st23" d="M479.3,165l-198.6,70.1l-5.2,11.9l219.1,3c-0.4-24.9-4.5-56.1-12.1-78.8"/>
		<path id="XMLID_169_" class="st24" d="M233.9,226.2c-1.1,9.8-3.1,19.3-6.2,28.3l247,81.4c6.5-17.9,16.7-43.4,18.8-63.2
			c0.5-4.9,0.9-17.9,1.1-22.8l-260.3-28.7C234.4,221.3,234.1,224.6,233.9,226.2"/>
		<path id="XMLID_168_" class="st25" d="M253.5,240.6c-4.8,10.3-10.8,19.8-17.8,28.4l197.9,140c15.6-18,31.4-50.8,41.1-73.1
			L253.5,240.6z"/>
		<path id="XMLID_167_" class="st26" d="M275.5,247c-8.3,8.2-17.7,15.3-27.9,21.1l113.7,195.6c21.8-11.6,55-37.1,72.3-54.7
			L275.5,247z"/>
		<path id="XMLID_166_" class="st27" d="M361.3,463.7L275,254.8c-10.5,4.5-21.7,7.8-33.3,9.5L275,487.3
			c24.6-2.9,56.6-11.4,78.5-21.3"/>
		<path id="XMLID_165_" class="st1" d="M243.4,220.4c9.7,6.5,18.6,14.2,26.3,23l168.4-151c-15.8-19-47.5-46.4-68.2-59.7L243.4,220.4
			z"/>
		<path id="XMLID_164_" class="st28" d="M272.8,258.1c-6.4,0.2-13,0-19.6-0.7c-5.3-0.6-10.5-1.5-15.6-2.6l-50.5,222.9
			c11.2,2.9,30.2,6.9,42.1,8.2c13.2,1.4,33,2.1,45.8,1.4L272.8,258.1z"/>
		<path id="XMLID_163_" class="st29" d="M236.6,222.4c11.5,2,23.6,3.2,33.8,7.8l99.5-197.6C348.5,22.4,308.8,9,284.2,5.5
			L236.6,222.4z"/>
		<path id="XMLID_162_" class="st30" d="M265.8,260.4l-31.7-16L110,439.6c19.8,14.3,53.3,30.3,77.2,38.1L265.8,260.4z"/>
		<path id="XMLID_161_" class="st31" d="M253.5,200.6c11.2-2.3-11.9,5.7,0,6.5L289,9.5c-25.1-2-79.4,4.1-102.8,9.5L253.5,200.6z"/>
		<path id="XMLID_160_" class="st12" d="M240.7,233.1c11.3-2.8,23-4.2,34.7-4l8.8-223.6c-24.7-1.1-73.7,1.4-97.5,7.8L240.7,233.1z"
			/>
		<path id="XMLID_159_" class="st32" d="M233.4,242.1c9.5-6,20.7-17.3,31.5-20.8L186.2,19c-23.4,7-54.4,17.4-74.4,30.9L233.4,242.1z
			"/>
		<path id="XMLID_158_" class="st33" d="M235.5,259.6c7-9.5,15.2-17.9,24.4-25.2l-148-184.5c-19.5,15-47.6,44.9-61.7,65.2
			L235.5,259.6z"/>
		<path id="XMLID_157_" class="st34" d="M240.9,261.1c3.1-11.5,7.7-22.4,13.5-32.4L50.1,115.1c-12.7,20.8-26.6,60.4-32.5,85
			L240.9,261.1z"/>
		<path id="XMLID_156_" class="st35" d="M230,241.7L47.8,371.5c13.4,20.6,43.1,52.4,62.2,68.2l143.5-171.7
			C244.5,260.2,236.6,251.4,230,241.7"/>
		<path id="XMLID_155_" class="st36" d="M241.7,232.7c0.2-2.1,0.5-4.2,0.8-6.3L17.6,200.1c-0.9,5.1-0.9,16.2-1.5,21.5
			c-2.1,19.9-1.1,49.2,1.5,68.1L241.7,262C240.7,252.5,240.6,242.7,241.7,232.7"/>
		<path id="XMLID_154_" class="st37" d="M250.1,261.7c-5.6-10.5-9.8-21.7-12.5-33.5l-220,61.6c5,24.7,18.1,60.3,30.2,81.8
			L250.1,261.7z"/>
	</g>
</g>
<g>
	<defs>
		<path id="SVGID_7_" d="M446.1,281.5c1.8,3.3,4.8,5.2,7.2,7.6c3.4,3.4,7.2,6.4,10.1,10.4c0.9,1.2,1.6,2.6,2.1,4
			c0.7,1.8,1.5,3.7,1.6,5.6c0.1,2.2-0.2,4.6-0.8,6.7c-1,3.3-2.6,6.4-5.5,8.7c-1.6,1.3-2.8,3.1-4.2,4.7c-2.4,2.6-2.6,3.4-5.6,0.4
			c-6.2-6.3-12.5-12.5-18.8-18.7c-6.9-6.9-13.9-13.7-20.8-20.6c-4.1-4-8.1-8.1-12.1-12.2c-6.5-6.5-13.1-13-19.6-19.5
			c-2.5-2.4-5-4.9-7.4-7.3c-1.7-1.7-1.7-2.5,0-4.2c7.4-7.5,14.8-14.9,22.2-22.4c11.4-11.4,22.7-22.8,34.1-34.2
			c4.8-4.8,9.6-9.4,14.4-14.2c2.6-2.5,5.1-5.2,7.7-7.7c1.4-1.3,1.6-1.3,3,0c5.5,5.4,10.9,10.9,16.3,16.4c1.3,1.3,1.3,1.9,0,3.2
			c-8.8,8.9-17.7,17.8-26.5,26.7c-7.8,7.8-15.7,15.5-23.5,23.3c-2.8,2.8-5.5,5.8-8.5,8.8c4.6,5,9.6,9.6,14.5,14.6
			c1.3-1.2,2.5-2.3,3.7-3.5c10.5-10.5,21-21.1,31.5-31.7c2.8-2.8,5.5-5.6,8.3-8.4c1.6-1.5,2-1.5,3.5,0c5.2,5.2,10.4,10.4,15.5,15.6
			c0.4,0.4,0.7,0.8,1.1,1.2c0.8,1.1,0.8,1.5-0.2,2.5c-6.2,6.3-12.5,12.5-18.7,18.8c-3.7,3.8-7.2,7.7-10.9,11.5
			c-4,4.1-8.1,8.1-12.1,12.2C447,280.3,446.6,280.9,446.1,281.5z"/>
	</defs>
	<clipPath id="SVGID_8_">
		<use xlink:href="#SVGID_7_"  style="overflow:visible;"/>
	</clipPath>
	<g id="XMLID_133_" class="st39">
		<path id="XMLID_152_" class="st21" d="M275,224.8C285.1,230.8,266.9,216.5,275,224.8L433.9,89c-16.8-18-46.6-44.1-68.3-56.3
			L275,224.8z"/>
		<path id="XMLID_151_" class="st22" d="M267.4,244.9L479.3,165c-9.3-22.7-30-57.3-45.4-76.1L275,224.8c10.2,8.6,13.5,41.1-2.2,4.9"
			/>
		<path id="XMLID_150_" class="st23" d="M479.3,165l-198.6,70.1l-5.2,11.9l219.1,3c-0.4-24.9-4.5-56.1-12.1-78.8"/>
		<path id="XMLID_149_" class="st24" d="M233.9,226.2c-1.1,9.8-3.1,19.3-6.2,28.3l247,81.4c6.5-17.9,16.7-43.4,18.8-63.2
			c0.5-4.9,0.9-17.9,1.1-22.8l-260.3-28.7C234.4,221.3,234.1,224.6,233.9,226.2"/>
		<path id="XMLID_148_" class="st25" d="M253.5,240.6c-4.8,10.3-10.8,19.8-17.8,28.4l197.9,140c15.6-18,31.4-50.8,41.1-73.1
			L253.5,240.6z"/>
		<path id="XMLID_147_" class="st26" d="M275.5,247c-8.3,8.2-17.7,15.3-27.9,21.1l113.7,195.6c21.8-11.6,55-37.1,72.3-54.7
			L275.5,247z"/>
		<path id="XMLID_146_" class="st27" d="M361.3,463.7L275,254.8c-10.5,4.5-21.7,7.8-33.3,9.5L275,487.3
			c24.6-2.9,56.6-11.4,78.5-21.3"/>
		<path id="XMLID_145_" class="st1" d="M243.4,220.4c9.7,6.5,18.6,14.2,26.3,23l168.4-151c-15.8-19-47.5-46.4-68.2-59.7L243.4,220.4
			z"/>
		<path id="XMLID_144_" class="st28" d="M272.8,258.1c-6.4,0.2-13,0-19.6-0.7c-5.3-0.6-10.5-1.5-15.6-2.6l-50.5,222.9
			c11.2,2.9,30.2,6.9,42.1,8.2c13.2,1.4,33,2.1,45.8,1.4L272.8,258.1z"/>
		<path id="XMLID_143_" class="st29" d="M236.6,222.4c11.5,2,23.6,3.2,33.8,7.8l99.5-197.6C348.5,22.4,308.8,9,284.2,5.5
			L236.6,222.4z"/>
		<path id="XMLID_142_" class="st30" d="M265.8,260.4l-31.7-16L110,439.6c19.8,14.3,53.3,30.3,77.2,38.1L265.8,260.4z"/>
		<path id="XMLID_141_" class="st31" d="M253.5,200.6c11.2-2.3-11.9,5.7,0,6.5L289,9.5c-25.1-2-79.4,4.1-102.8,9.5L253.5,200.6z"/>
		<path id="XMLID_140_" class="st12" d="M240.7,233.1c11.3-2.8,23-4.2,34.7-4l8.8-223.6c-24.7-1.1-73.7,1.4-97.5,7.8L240.7,233.1z"
			/>
		<path id="XMLID_139_" class="st32" d="M233.4,242.1c9.5-6,20.7-17.3,31.5-20.8L186.2,19c-23.4,7-54.4,17.4-74.4,30.9L233.4,242.1z
			"/>
		<path id="XMLID_138_" class="st33" d="M235.5,259.6c7-9.5,15.2-17.9,24.4-25.2l-148-184.5c-19.5,15-47.6,44.9-61.7,65.2
			L235.5,259.6z"/>
		<path id="XMLID_137_" class="st34" d="M240.9,261.1c3.1-11.5,7.7-22.4,13.5-32.4L50.1,115.1c-12.7,20.8-26.6,60.4-32.5,85
			L240.9,261.1z"/>
		<path id="XMLID_136_" class="st35" d="M230,241.7L47.8,371.5c13.4,20.6,43.1,52.4,62.2,68.2l143.5-171.7
			C244.5,260.2,236.6,251.4,230,241.7"/>
		<path id="XMLID_135_" class="st36" d="M241.7,232.7c0.2-2.1,0.5-4.2,0.8-6.3L17.6,200.1c-0.9,5.1-0.9,16.2-1.5,21.5
			c-2.1,19.9-1.1,49.2,1.5,68.1L241.7,262C240.7,252.5,240.6,242.7,241.7,232.7"/>
		<path id="XMLID_134_" class="st37" d="M250.1,261.7c-5.6-10.5-9.8-21.7-12.5-33.5l-220,61.6c5,24.7,18.1,60.3,30.2,81.8
			L250.1,261.7z"/>
	</g>
</g>
<g>
	<defs>
		<path id="SVGID_9_" d="M57.1,215.8c-1.8-3.3-4.8-5.2-7.2-7.6c-3.4-3.4-7.2-6.4-10.1-10.4c-0.9-1.2-1.6-2.6-2.1-4
			c-0.7-1.8-1.5-3.7-1.6-5.6c-0.1-2.2,0.2-4.6,0.8-6.7c1-3.3,2.6-6.4,5.5-8.7c1.6-1.3,2.8-3.1,4.2-4.7c2.4-2.6,2.6-3.4,5.6-0.4
			c6.2,6.3,12.5,12.5,18.8,18.7c6.9,6.9,13.9,13.7,20.8,20.6c4.1,4,8.1,8.1,12.1,12.2c6.5,6.5,13.1,13,19.6,19.5
			c2.5,2.4,5,4.9,7.4,7.3c1.7,1.7,1.7,2.5,0,4.2c-7.4,7.5-14.8,14.9-22.2,22.4c-11.4,11.4-22.7,22.8-34.1,34.2
			c-4.8,4.8-9.6,9.4-14.4,14.2c-2.6,2.5-5.1,5.2-7.7,7.7c-1.4,1.3-1.6,1.3-3,0c-5.5-5.4-10.9-10.9-16.3-16.4c-1.3-1.3-1.3-1.9,0-3.2
			c8.8-8.9,17.7-17.8,26.5-26.7c7.8-7.8,15.7-15.5,23.5-23.3c2.8-2.8,5.5-5.8,8.5-8.8c-4.6-5-9.6-9.6-14.5-14.6
			c-1.3,1.2-2.5,2.3-3.7,3.5c-10.5,10.5-21,21.1-31.5,31.7c-2.8,2.8-5.5,5.6-8.3,8.4c-1.6,1.5-2,1.5-3.5,0
			c-5.2-5.2-10.4-10.4-15.5-15.6c-0.4-0.4-0.7-0.8-1.1-1.2c-0.8-1.1-0.8-1.5,0.2-2.5c6.2-6.3,12.5-12.5,18.7-18.8
			c3.7-3.8,7.2-7.7,10.9-11.5c4-4.1,8.1-8.1,12.1-12.2C56.1,216.9,56.5,216.4,57.1,215.8z"/>
	</defs>
	<clipPath id="SVGID_10_">
		<use xlink:href="#SVGID_9_"  style="overflow:visible;"/>
	</clipPath>
	<g id="XMLID_113_" class="st40">
		<path id="XMLID_132_" class="st21" d="M275,224.8C285.1,230.8,266.9,216.5,275,224.8L433.9,89c-16.8-18-46.6-44.1-68.3-56.3
			L275,224.8z"/>
		<path id="XMLID_131_" class="st22" d="M267.4,244.9L479.3,165c-9.3-22.7-30-57.3-45.4-76.1L275,224.8c10.2,8.6,13.5,41.1-2.2,4.9"
			/>
		<path id="XMLID_130_" class="st23" d="M479.3,165l-198.6,70.1l-5.2,11.9l219.1,3c-0.4-24.9-4.5-56.1-12.1-78.8"/>
		<path id="XMLID_129_" class="st24" d="M233.9,226.2c-1.1,9.8-3.1,19.3-6.2,28.3l247,81.4c6.5-17.9,16.7-43.4,18.8-63.2
			c0.5-4.9,0.9-17.9,1.1-22.8l-260.3-28.7C234.4,221.3,234.1,224.6,233.9,226.2"/>
		<path id="XMLID_128_" class="st25" d="M253.5,240.6c-4.8,10.3-10.8,19.8-17.8,28.4l197.9,140c15.6-18,31.4-50.8,41.1-73.1
			L253.5,240.6z"/>
		<path id="XMLID_127_" class="st26" d="M275.5,247c-8.3,8.2-17.7,15.3-27.9,21.1l113.7,195.6c21.8-11.6,55-37.1,72.3-54.7
			L275.5,247z"/>
		<path id="XMLID_126_" class="st27" d="M361.3,463.7L275,254.8c-10.5,4.5-21.7,7.8-33.3,9.5L275,487.3
			c24.6-2.9,56.6-11.4,78.5-21.3"/>
		<path id="XMLID_125_" class="st1" d="M243.4,220.4c9.7,6.5,18.6,14.2,26.3,23l168.4-151c-15.8-19-47.5-46.4-68.2-59.7L243.4,220.4
			z"/>
		<path id="XMLID_124_" class="st28" d="M272.8,258.1c-6.4,0.2-13,0-19.6-0.7c-5.3-0.6-10.5-1.5-15.6-2.6l-50.5,222.9
			c11.2,2.9,30.2,6.9,42.1,8.2c13.2,1.4,33,2.1,45.8,1.4L272.8,258.1z"/>
		<path id="XMLID_123_" class="st29" d="M236.6,222.4c11.5,2,23.6,3.2,33.8,7.8l99.5-197.6C348.5,22.4,308.8,9,284.2,5.5
			L236.6,222.4z"/>
		<path id="XMLID_122_" class="st30" d="M265.8,260.4l-31.7-16L110,439.6c19.8,14.3,53.3,30.3,77.2,38.1L265.8,260.4z"/>
		<path id="XMLID_121_" class="st31" d="M253.5,200.6c11.2-2.3-11.9,5.7,0,6.5L289,9.5c-25.1-2-79.4,4.1-102.8,9.5L253.5,200.6z"/>
		<path id="XMLID_120_" class="st12" d="M240.7,233.1c11.3-2.8,23-4.2,34.7-4l8.8-223.6c-24.7-1.1-73.7,1.4-97.5,7.8L240.7,233.1z"
			/>
		<path id="XMLID_119_" class="st32" d="M233.4,242.1c9.5-6,20.7-17.3,31.5-20.8L186.2,19c-23.4,7-54.4,17.4-74.4,30.9L233.4,242.1z
			"/>
		<path id="XMLID_118_" class="st33" d="M235.5,259.6c7-9.5,15.2-17.9,24.4-25.2l-148-184.5c-19.5,15-47.6,44.9-61.7,65.2
			L235.5,259.6z"/>
		<path id="XMLID_117_" class="st34" d="M240.9,261.1c3.1-11.5,7.7-22.4,13.5-32.4L50.1,115.1c-12.7,20.8-26.6,60.4-32.5,85
			L240.9,261.1z"/>
		<path id="XMLID_116_" class="st35" d="M230,241.7L47.8,371.5c13.4,20.6,43.1,52.4,62.2,68.2l143.5-171.7
			C244.5,260.2,236.6,251.4,230,241.7"/>
		<path id="XMLID_115_" class="st36" d="M241.7,232.7c0.2-2.1,0.5-4.2,0.8-6.3L17.6,200.1c-0.9,5.1-0.9,16.2-1.5,21.5
			c-2.1,19.9-1.1,49.2,1.5,68.1L241.7,262C240.7,252.5,240.6,242.7,241.7,232.7"/>
		<path id="XMLID_114_" class="st37" d="M250.1,261.7c-5.6-10.5-9.8-21.7-12.5-33.5l-220,61.6c5,24.7,18.1,60.3,30.2,81.8
			L250.1,261.7z"/>
	</g>
</g>
<g>
	<defs>
		<path id="SVGID_11_" d="M411.8,136.4c4.3,0,8.3,0,12.3,0c3.8,0,7.7-0.2,11.5,0.3c2.4,0.3,4.7,1.5,6.9,2.6
			c4.4,2.2,6.6,6.1,8.6,10.4c1,2.1,0.5,4.3,0.6,6.5c0.2,2.6,0,5.3,0,7.9c0,2.5-0.3,2.8-2.7,2.8c-5.4-0.1-10.7-0.2-16.1-0.2
			c-3.1,0-6.2,0.1-9.3,0.1c-6.5,0-13-0.1-19.5-0.1c-8.5,0-16.9,0-25.4,0c-5.4,0-10.7-0.1-16.1-0.1c-5.7,0-11.3-0.1-17-0.1
			c-2.5,0-5.1,0.1-7.6,0c-2.4,0-2.6-0.2-2.6-2.6c0-6,0-11.9,0-17.9c0-5.8,0.2-11.6,0.2-17.4c0-4.8-0.2-9.7-0.3-14.5
			c-0.1-6.9,0-13.9-0.1-20.8c-0.1-12.8-0.1-25.7-0.2-38.5c0-0.1,0-0.2,0-0.2c0-4,0.3-4.2,4.2-4.1c6.3,0.1,12.5,0.1,18.8,0.2
			c0.9,0,1.8,0,2.7,0.1c1.8,0.1,2.1,0.3,2.2,2.2c0.1,3,0,6,0,9.1c0,4.3,0,8.6,0,12.9c0,12.9,0.1,25.9,0.1,38.8
			c0,6.4,0.1,12.9,0.2,19.3c0,1.1,0.2,2.2,0.3,3.4c6.7,0.1,13.1,0.2,19.8,0c0.5-10.8,0.1-21.3,0.1-31.8c0-10.5,0-21,0-31.5
			c2.2-1.1,4.4-0.4,6.6-0.5c3.5-0.1,6.9,0.1,10.4,0.1c2.8,0,5.6,0,8.4,0.1c2.3,0.1,2.6,0.4,2.6,2.7c0,11.3,0,22.7,0,34
			c0,8,0,16,0.1,24.1C411.5,134.3,411.7,135.2,411.8,136.4z"/>
	</defs>
	<clipPath id="SVGID_12_">
		<use xlink:href="#SVGID_11_"  style="overflow:visible;"/>
	</clipPath>
	<g id="XMLID_193_" class="st41">
		<path id="XMLID_212_" class="st21" d="M275,224.8C285.1,230.8,266.9,216.5,275,224.8L433.9,89c-16.8-18-46.6-44.1-68.3-56.3
			L275,224.8z"/>
		<path id="XMLID_211_" class="st22" d="M267.4,244.9L479.3,165c-9.3-22.7-30-57.3-45.4-76.1L275,224.8c10.2,8.6,13.5,41.1-2.2,4.9"
			/>
		<path id="XMLID_210_" class="st23" d="M479.3,165l-198.6,70.1l-5.2,11.9l219.1,3c-0.4-24.9-4.5-56.1-12.1-78.8"/>
		<path id="XMLID_209_" class="st24" d="M233.9,226.2c-1.1,9.8-3.1,19.3-6.2,28.3l247,81.4c6.5-17.9,16.7-43.4,18.8-63.2
			c0.5-4.9,0.9-17.9,1.1-22.8l-260.3-28.7C234.4,221.3,234.1,224.6,233.9,226.2"/>
		<path id="XMLID_208_" class="st25" d="M253.5,240.6c-4.8,10.3-10.8,19.8-17.8,28.4l197.9,140c15.6-18,31.4-50.8,41.1-73.1
			L253.5,240.6z"/>
		<path id="XMLID_207_" class="st26" d="M275.5,247c-8.3,8.2-17.7,15.3-27.9,21.1l113.7,195.6c21.8-11.6,55-37.1,72.3-54.7
			L275.5,247z"/>
		<path id="XMLID_206_" class="st27" d="M361.3,463.7L275,254.8c-10.5,4.5-21.7,7.8-33.3,9.5L275,487.3
			c24.6-2.9,56.6-11.4,78.5-21.3"/>
		<path id="XMLID_205_" class="st1" d="M243.4,220.4c9.7,6.5,18.6,14.2,26.3,23l168.4-151c-15.8-19-47.5-46.4-68.2-59.7L243.4,220.4
			z"/>
		<path id="XMLID_204_" class="st28" d="M272.8,258.1c-6.4,0.2-13,0-19.6-0.7c-5.3-0.6-10.5-1.5-15.6-2.6l-50.5,222.9
			c11.2,2.9,30.2,6.9,42.1,8.2c13.2,1.4,33,2.1,45.8,1.4L272.8,258.1z"/>
		<path id="XMLID_203_" class="st29" d="M236.6,222.4c11.5,2,23.6,3.2,33.8,7.8l99.5-197.6C348.5,22.4,308.8,9,284.2,5.5
			L236.6,222.4z"/>
		<path id="XMLID_202_" class="st30" d="M265.8,260.4l-31.7-16L110,439.6c19.8,14.3,53.3,30.3,77.2,38.1L265.8,260.4z"/>
		<path id="XMLID_201_" class="st31" d="M253.5,200.6c11.2-2.3-11.9,5.7,0,6.5L289,9.5c-25.1-2-79.4,4.1-102.8,9.5L253.5,200.6z"/>
		<path id="XMLID_200_" class="st12" d="M240.7,233.1c11.3-2.8,23-4.2,34.7-4l8.8-223.6c-24.7-1.1-73.7,1.4-97.5,7.8L240.7,233.1z"
			/>
		<path id="XMLID_199_" class="st32" d="M233.4,242.1c9.5-6,20.7-17.3,31.5-20.8L186.2,19c-23.4,7-54.4,17.4-74.4,30.9L233.4,242.1z
			"/>
		<path id="XMLID_198_" class="st33" d="M235.5,259.6c7-9.5,15.2-17.9,24.4-25.2l-148-184.5c-19.5,15-47.6,44.9-61.7,65.2
			L235.5,259.6z"/>
		<path id="XMLID_197_" class="st34" d="M240.9,261.1c3.1-11.5,7.7-22.4,13.5-32.4L50.1,115.1c-12.7,20.8-26.6,60.4-32.5,85
			L240.9,261.1z"/>
		<path id="XMLID_196_" class="st35" d="M230,241.7L47.8,371.5c13.4,20.6,43.1,52.4,62.2,68.2l143.5-171.7
			C244.5,260.2,236.6,251.4,230,241.7"/>
		<path id="XMLID_195_" class="st36" d="M241.7,232.7c0.2-2.1,0.5-4.2,0.8-6.3L17.6,200.1c-0.9,5.1-0.9,16.2-1.5,21.5
			c-2.1,19.9-1.1,49.2,1.5,68.1L241.7,262C240.7,252.5,240.6,242.7,241.7,232.7"/>
		<path id="XMLID_194_" class="st37" d="M250.1,261.7c-5.6-10.5-9.8-21.7-12.5-33.5l-220,61.6c5,24.7,18.1,60.3,30.2,81.8
			L250.1,261.7z"/>
	</g>
</g>
<g>
	<defs>
		<path id="SVGID_13_" d="M92.8,364.5c-4.3,0-8.3,0-12.3,0c-3.8,0-7.7,0.2-11.5-0.3c-2.4-0.3-4.7-1.5-6.9-2.6
			c-4.4-2.2-6.6-6.1-8.6-10.4c-1-2.1-0.5-4.3-0.6-6.5c-0.2-2.6,0-5.3,0-7.9c0-2.5,0.3-2.8,2.7-2.8c5.4,0.1,10.7,0.2,16.1,0.2
			c3.1,0,6.2-0.1,9.3-0.1c6.5,0,13,0.1,19.5,0.1c8.5,0,16.9,0,25.4,0c5.4,0,10.7,0.1,16.1,0.1c5.7,0,11.3,0.1,17,0.1
			c2.5,0,5.1-0.1,7.6,0c2.4,0,2.6,0.2,2.6,2.6c0,6,0,11.9,0,17.9c0,5.8-0.2,11.6-0.2,17.4c0,4.8,0.2,9.7,0.3,14.5
			c0.1,6.9,0,13.9,0.1,20.8c0.1,12.8,0.1,25.7,0.2,38.5c0,0.1,0,0.2,0,0.2c0,4-0.3,4.2-4.2,4.1c-6.3-0.1-12.5-0.1-18.8-0.2
			c-0.9,0-1.8,0-2.7-0.1c-1.8-0.1-2.1-0.3-2.2-2.2c-0.1-3,0-6,0-9.1c0-4.3,0-8.6,0-12.9c0-12.9-0.1-25.9-0.1-38.8
			c0-6.4-0.1-12.9-0.2-19.3c0-1.1-0.2-2.2-0.3-3.4c-6.7-0.1-13.1-0.2-19.8,0c-0.5,10.8-0.1,21.3-0.1,31.8c0,10.5,0,21,0,31.5
			c-2.2,1.1-4.4,0.4-6.6,0.5c-3.5,0.1-6.9-0.1-10.4-0.1c-2.8,0-5.6,0-8.4-0.1c-2.3-0.1-2.6-0.4-2.6-2.7c0-11.3,0-22.7,0-34
			c0-8,0-16-0.1-24.1C93.2,366.6,93,365.7,92.8,364.5z"/>
	</defs>
	<clipPath id="SVGID_14_">
		<use xlink:href="#SVGID_13_"  style="overflow:visible;"/>
	</clipPath>
	<g id="XMLID_213_" class="st42">
		<path id="XMLID_232_" class="st21" d="M275,224.8C285.1,230.8,266.9,216.5,275,224.8L433.9,89c-16.8-18-46.6-44.1-68.3-56.3
			L275,224.8z"/>
		<path id="XMLID_231_" class="st22" d="M267.4,244.9L479.3,165c-9.3-22.7-30-57.3-45.4-76.1L275,224.8c10.2,8.6,13.5,41.1-2.2,4.9"
			/>
		<path id="XMLID_230_" class="st23" d="M479.3,165l-198.6,70.1l-5.2,11.9l219.1,3c-0.4-24.9-4.5-56.1-12.1-78.8"/>
		<path id="XMLID_229_" class="st24" d="M233.9,226.2c-1.1,9.8-3.1,19.3-6.2,28.3l247,81.4c6.5-17.9,16.7-43.4,18.8-63.2
			c0.5-4.9,0.9-17.9,1.1-22.8l-260.3-28.7C234.4,221.3,234.1,224.6,233.9,226.2"/>
		<path id="XMLID_228_" class="st25" d="M253.5,240.6c-4.8,10.3-10.8,19.8-17.8,28.4l197.9,140c15.6-18,31.4-50.8,41.1-73.1
			L253.5,240.6z"/>
		<path id="XMLID_227_" class="st26" d="M275.5,247c-8.3,8.2-17.7,15.3-27.9,21.1l113.7,195.6c21.8-11.6,55-37.1,72.3-54.7
			L275.5,247z"/>
		<path id="XMLID_226_" class="st27" d="M361.3,463.7L275,254.8c-10.5,4.5-21.7,7.8-33.3,9.5L275,487.3
			c24.6-2.9,56.6-11.4,78.5-21.3"/>
		<path id="XMLID_225_" class="st1" d="M243.4,220.4c9.7,6.5,18.6,14.2,26.3,23l168.4-151c-15.8-19-47.5-46.4-68.2-59.7L243.4,220.4
			z"/>
		<path id="XMLID_224_" class="st28" d="M272.8,258.1c-6.4,0.2-13,0-19.6-0.7c-5.3-0.6-10.5-1.5-15.6-2.6l-50.5,222.9
			c11.2,2.9,30.2,6.9,42.1,8.2c13.2,1.4,33,2.1,45.8,1.4L272.8,258.1z"/>
		<path id="XMLID_223_" class="st29" d="M236.6,222.4c11.5,2,23.6,3.2,33.8,7.8l99.5-197.6C348.5,22.4,308.8,9,284.2,5.5
			L236.6,222.4z"/>
		<path id="XMLID_222_" class="st30" d="M265.8,260.4l-31.7-16L110,439.6c19.8,14.3,53.3,30.3,77.2,38.1L265.8,260.4z"/>
		<path id="XMLID_221_" class="st31" d="M253.5,200.6c11.2-2.3-11.9,5.7,0,6.5L289,9.5c-25.1-2-79.4,4.1-102.8,9.5L253.5,200.6z"/>
		<path id="XMLID_220_" class="st12" d="M240.7,233.1c11.3-2.8,23-4.2,34.7-4l8.8-223.6c-24.7-1.1-73.7,1.4-97.5,7.8L240.7,233.1z"
			/>
		<path id="XMLID_219_" class="st32" d="M233.4,242.1c9.5-6,20.7-17.3,31.5-20.8L186.2,19c-23.4,7-54.4,17.4-74.4,30.9L233.4,242.1z
			"/>
		<path id="XMLID_218_" class="st33" d="M235.5,259.6c7-9.5,15.2-17.9,24.4-25.2l-148-184.5c-19.5,15-47.6,44.9-61.7,65.2
			L235.5,259.6z"/>
		<path id="XMLID_217_" class="st34" d="M240.9,261.1c3.1-11.5,7.7-22.4,13.5-32.4L50.1,115.1c-12.7,20.8-26.6,60.4-32.5,85
			L240.9,261.1z"/>
		<path id="XMLID_216_" class="st35" d="M230,241.7L47.8,371.5c13.4,20.6,43.1,52.4,62.2,68.2l143.5-171.7
			C244.5,260.2,236.6,251.4,230,241.7"/>
		<path id="XMLID_215_" class="st36" d="M241.7,232.7c0.2-2.1,0.5-4.2,0.8-6.3L17.6,200.1c-0.9,5.1-0.9,16.2-1.5,21.5
			c-2.1,19.9-1.1,49.2,1.5,68.1L241.7,262C240.7,252.5,240.6,242.7,241.7,232.7"/>
		<path id="XMLID_214_" class="st37" d="M250.1,261.7c-5.6-10.5-9.8-21.7-12.5-33.5l-220,61.6c5,24.7,18.1,60.3,30.2,81.8
			L250.1,261.7z"/>
	</g>
</g>
<g>
	<defs>
		<path id="SVGID_15_" d="M251,90.8c4.9-4.8,9.6-9.4,14.6-14.3c-1.3-1.4-2.3-2.6-3.5-3.8c-9.7-9.8-19.5-19.6-29.2-29.5
			c-3.7-3.7-7.3-7.4-11-11.1c-1.6-1.7-1.6-2,0.1-3.7c5.2-5.2,10.4-10.3,15.6-15.5c1.6-1.6,2.4-1.6,4,0.1c4,4.1,7.9,8.2,11.8,12.2
			c4.4,4.5,9,9,13.4,13.5c4.4,4.4,8.7,8.8,13.1,13.2c1.6,1.6,3.3,3.3,5,5c2.2-2.1,4.3-4,6.3-5.9c3.6-3.6,7-7.4,10.8-10.7
			c1.7-1.5,4.2-2.1,6.4-3c0.7-0.3,1.6-0.3,2.4-0.4c5-0.8,9.8-0.2,13.7,3.4c3.1,2.8,6,5.7,8.9,8.7c0.9,0.9,0.8,1.6-0.1,2.5
			c-1.9,2-3.9,3.8-5.8,5.7c-6.1,6.3-12.2,12.6-18.4,18.8c-5.5,5.5-11.1,10.9-16.7,16.3c-2.3,2.3-4.5,4.7-6.8,6.9
			c-7.5,7.3-15.1,14.6-22.6,22c-2.8,2.7-5.4,5.5-8.1,8.2c-0.6,0.6-1.3,1.2-2,1.9c-1.6-0.5-2.5-1.7-3.6-2.8c-4.7-4.6-9.3-9.3-13.9-14
			c-4.5-4.5-8.9-9.1-13.4-13.5c-7.1-7.1-14.3-14.2-21.3-21.3c-5.5-5.6-11-11.2-16.5-16.8c-2.4-2.5-4.9-4.9-7.3-7.4
			c-0.8-0.9-4.3-4.3-5.2-5.2c-1.7-1.5-1.6-2.2-0.1-3.7c5.4-5.2,10.9-10.5,16.4-15.7c0.5-0.5,1.2-0.9,1.9-1.5
			C210.4,49.8,230.6,70.2,251,90.8z"/>
	</defs>
	<clipPath id="SVGID_16_">
		<use xlink:href="#SVGID_15_"  style="overflow:visible;"/>
	</clipPath>
	<g id="XMLID_233_" class="st43">
		<path id="XMLID_252_" class="st21" d="M275,224.8C285.1,230.8,266.9,216.5,275,224.8L433.9,89c-16.8-18-46.6-44.1-68.3-56.3
			L275,224.8z"/>
		<path id="XMLID_251_" class="st22" d="M267.4,244.9L479.3,165c-9.3-22.7-30-57.3-45.4-76.1L275,224.8c10.2,8.6,13.5,41.1-2.2,4.9"
			/>
		<path id="XMLID_250_" class="st23" d="M479.3,165l-198.6,70.1l-5.2,11.9l219.1,3c-0.4-24.9-4.5-56.1-12.1-78.8"/>
		<path id="XMLID_249_" class="st24" d="M233.9,226.2c-1.1,9.8-3.1,19.3-6.2,28.3l247,81.4c6.5-17.9,16.7-43.4,18.8-63.2
			c0.5-4.9,0.9-17.9,1.1-22.8l-260.3-28.7C234.4,221.3,234.1,224.6,233.9,226.2"/>
		<path id="XMLID_248_" class="st25" d="M253.5,240.6c-4.8,10.3-10.8,19.8-17.8,28.4l197.9,140c15.6-18,31.4-50.8,41.1-73.1
			L253.5,240.6z"/>
		<path id="XMLID_247_" class="st26" d="M275.5,247c-8.3,8.2-17.7,15.3-27.9,21.1l113.7,195.6c21.8-11.6,55-37.1,72.3-54.7
			L275.5,247z"/>
		<path id="XMLID_246_" class="st27" d="M361.3,463.7L275,254.8c-10.5,4.5-21.7,7.8-33.3,9.5L275,487.3
			c24.6-2.9,56.6-11.4,78.5-21.3"/>
		<path id="XMLID_245_" class="st1" d="M243.4,220.4c9.7,6.5,18.6,14.2,26.3,23l168.4-151c-15.8-19-47.5-46.4-68.2-59.7L243.4,220.4
			z"/>
		<path id="XMLID_244_" class="st28" d="M272.8,258.1c-6.4,0.2-13,0-19.6-0.7c-5.3-0.6-10.5-1.5-15.6-2.6l-50.5,222.9
			c11.2,2.9,30.2,6.9,42.1,8.2c13.2,1.4,33,2.1,45.8,1.4L272.8,258.1z"/>
		<path id="XMLID_243_" class="st29" d="M236.6,222.4c11.5,2,23.6,3.2,33.8,7.8l99.5-197.6C348.5,22.4,308.8,9,284.2,5.5
			L236.6,222.4z"/>
		<path id="XMLID_242_" class="st30" d="M265.8,260.4l-31.7-16L110,439.6c19.8,14.3,53.3,30.3,77.2,38.1L265.8,260.4z"/>
		<path id="XMLID_241_" class="st31" d="M253.5,200.6c11.2-2.3-11.9,5.7,0,6.5L289,9.5c-25.1-2-79.4,4.1-102.8,9.5L253.5,200.6z"/>
		<path id="XMLID_240_" class="st12" d="M240.7,233.1c11.3-2.8,23-4.2,34.7-4l8.8-223.6c-24.7-1.1-73.7,1.4-97.5,7.8L240.7,233.1z"
			/>
		<path id="XMLID_239_" class="st32" d="M233.4,242.1c9.5-6,20.7-17.3,31.5-20.8L186.2,19c-23.4,7-54.4,17.4-74.4,30.9L233.4,242.1z
			"/>
		<path id="XMLID_238_" class="st33" d="M235.5,259.6c7-9.5,15.2-17.9,24.4-25.2l-148-184.5c-19.5,15-47.6,44.9-61.7,65.2
			L235.5,259.6z"/>
		<path id="XMLID_237_" class="st34" d="M240.9,261.1c3.1-11.5,7.7-22.4,13.5-32.4L50.1,115.1c-12.7,20.8-26.6,60.4-32.5,85
			L240.9,261.1z"/>
		<path id="XMLID_236_" class="st35" d="M230,241.7L47.8,371.5c13.4,20.6,43.1,52.4,62.2,68.2l143.5-171.7
			C244.5,260.2,236.6,251.4,230,241.7"/>
		<path id="XMLID_235_" class="st36" d="M241.7,232.7c0.2-2.1,0.5-4.2,0.8-6.3L17.6,200.1c-0.9,5.1-0.9,16.2-1.5,21.5
			c-2.1,19.9-1.1,49.2,1.5,68.1L241.7,262C240.7,252.5,240.6,242.7,241.7,232.7"/>
		<path id="XMLID_234_" class="st37" d="M250.1,261.7c-5.6-10.5-9.8-21.7-12.5-33.5l-220,61.6c5,24.7,18.1,60.3,30.2,81.8
			L250.1,261.7z"/>
	</g>
</g>
<g>
	<defs>
		<path id="SVGID_17_" d="M254.3,408.3c-4.9,4.8-9.6,9.4-14.6,14.3c1.3,1.4,2.3,2.6,3.5,3.8c9.7,9.8,19.5,19.6,29.2,29.5
			c3.7,3.7,7.3,7.4,11,11.1c1.6,1.7,1.6,2-0.1,3.7c-5.2,5.2-10.4,10.3-15.6,15.5c-1.6,1.6-2.4,1.6-4-0.1c-4-4.1-7.9-8.2-11.8-12.2
			c-4.4-4.5-9-9-13.4-13.5c-4.4-4.4-8.7-8.8-13.1-13.2c-1.6-1.6-3.3-3.3-5-5c-2.2,2.1-4.3,4-6.3,5.9c-3.6,3.6-7,7.4-10.8,10.7
			c-1.7,1.5-4.2,2.1-6.4,3c-0.7,0.3-1.6,0.3-2.4,0.4c-5,0.8-9.8,0.2-13.7-3.4c-3.1-2.8-6-5.7-8.9-8.7c-0.9-0.9-0.8-1.6,0.1-2.5
			c1.9-2,3.9-3.8,5.8-5.7c6.1-6.3,12.2-12.6,18.4-18.8c5.5-5.5,11.1-10.9,16.7-16.3c2.3-2.3,4.5-4.7,6.8-6.9
			c7.5-7.3,15.1-14.6,22.6-22c2.8-2.7,5.4-5.5,8.1-8.2c0.6-0.6,1.3-1.2,2-1.9c1.6,0.5,2.5,1.7,3.6,2.8c4.7,4.6,9.3,9.3,13.9,14
			c4.5,4.5,8.9,9.1,13.4,13.5c7.1,7.1,14.3,14.2,21.3,21.3c5.5,5.6,11,11.2,16.5,16.8c2.4,2.5,4.9,4.9,7.3,7.4
			c0.8,0.9,4.3,4.3,5.2,5.2c1.7,1.5,1.6,2.2,0.1,3.7c-5.4,5.2-10.9,10.5-16.4,15.7c-0.5,0.5-1.2,0.9-1.9,1.5
			C294.9,449.2,274.7,428.8,254.3,408.3z"/>
	</defs>
	<clipPath id="SVGID_18_">
		<use xlink:href="#SVGID_17_"  style="overflow:visible;"/>
	</clipPath>
	<g id="XMLID_93_" class="st44">
		<path id="XMLID_112_" class="st21" d="M275,224.8C285.1,230.8,266.9,216.5,275,224.8L433.9,89c-16.8-18-46.6-44.1-68.3-56.3
			L275,224.8z"/>
		<path id="XMLID_111_" class="st22" d="M267.4,244.9L479.3,165c-9.3-22.7-30-57.3-45.4-76.1L275,224.8c10.2,8.6,13.5,41.1-2.2,4.9"
			/>
		<path id="XMLID_110_" class="st23" d="M479.3,165l-198.6,70.1l-5.2,11.9l219.1,3c-0.4-24.9-4.5-56.1-12.1-78.8"/>
		<path id="XMLID_109_" class="st24" d="M233.9,226.2c-1.1,9.8-3.1,19.3-6.2,28.3l247,81.4c6.5-17.9,16.7-43.4,18.8-63.2
			c0.5-4.9,0.9-17.9,1.1-22.8l-260.3-28.7C234.4,221.3,234.1,224.6,233.9,226.2"/>
		<path id="XMLID_108_" class="st25" d="M253.5,240.6c-4.8,10.3-10.8,19.8-17.8,28.4l197.9,140c15.6-18,31.4-50.8,41.1-73.1
			L253.5,240.6z"/>
		<path id="XMLID_107_" class="st26" d="M275.5,247c-8.3,8.2-17.7,15.3-27.9,21.1l113.7,195.6c21.8-11.6,55-37.1,72.3-54.7
			L275.5,247z"/>
		<path id="XMLID_106_" class="st27" d="M361.3,463.7L275,254.8c-10.5,4.5-21.7,7.8-33.3,9.5L275,487.3
			c24.6-2.9,56.6-11.4,78.5-21.3"/>
		<path id="XMLID_105_" class="st1" d="M243.4,220.4c9.7,6.5,18.6,14.2,26.3,23l168.4-151c-15.8-19-47.5-46.4-68.2-59.7L243.4,220.4
			z"/>
		<path id="XMLID_104_" class="st28" d="M272.8,258.1c-6.4,0.2-13,0-19.6-0.7c-5.3-0.6-10.5-1.5-15.6-2.6l-50.5,222.9
			c11.2,2.9,30.2,6.9,42.1,8.2c13.2,1.4,33,2.1,45.8,1.4L272.8,258.1z"/>
		<path id="XMLID_103_" class="st29" d="M236.6,222.4c11.5,2,23.6,3.2,33.8,7.8l99.5-197.6C348.5,22.4,308.8,9,284.2,5.5
			L236.6,222.4z"/>
		<path id="XMLID_102_" class="st30" d="M265.8,260.4l-31.7-16L110,439.6c19.8,14.3,53.3,30.3,77.2,38.1L265.8,260.4z"/>
		<path id="XMLID_101_" class="st31" d="M253.5,200.6c11.2-2.3-11.9,5.7,0,6.5L289,9.5c-25.1-2-79.4,4.1-102.8,9.5L253.5,200.6z"/>
		<path id="XMLID_100_" class="st12" d="M240.7,233.1c11.3-2.8,23-4.2,34.7-4l8.8-223.6c-24.7-1.1-73.7,1.4-97.5,7.8L240.7,233.1z"
			/>
		<path id="XMLID_99_" class="st32" d="M233.4,242.1c9.5-6,20.7-17.3,31.5-20.8L186.2,19c-23.4,7-54.4,17.4-74.4,30.9L233.4,242.1z"
			/>
		<path id="XMLID_98_" class="st33" d="M235.5,259.6c7-9.5,15.2-17.9,24.4-25.2l-148-184.5c-19.5,15-47.6,44.9-61.7,65.2
			L235.5,259.6z"/>
		<path id="XMLID_97_" class="st34" d="M240.9,261.1c3.1-11.5,7.7-22.4,13.5-32.4L50.1,115.1c-12.7,20.8-26.6,60.4-32.5,85
			L240.9,261.1z"/>
		<path id="XMLID_96_" class="st35" d="M230,241.7L47.8,371.5c13.4,20.6,43.1,52.4,62.2,68.2l143.5-171.7
			C244.5,260.2,236.6,251.4,230,241.7"/>
		<path id="XMLID_95_" class="st36" d="M241.7,232.7c0.2-2.1,0.5-4.2,0.8-6.3L17.6,200.1c-0.9,5.1-0.9,16.2-1.5,21.5
			c-2.1,19.9-1.1,49.2,1.5,68.1L241.7,262C240.7,252.5,240.6,242.7,241.7,232.7"/>
		<path id="XMLID_94_" class="st37" d="M250.1,261.7c-5.6-10.5-9.8-21.7-12.5-33.5l-220,61.6c5,24.7,18.1,60.3,30.2,81.8
			L250.1,261.7z"/>
	</g>
</g>
<circle class="st45" cx="251.5" cy="250.1" r="222.5"/>
<path class="st46" d="M395.7,308.1c-1,0.1-1.9,0.2-2.9,0.2c-9.4,0-18.9,0.1-28.3,0.1c-15.9,0-31.7-0.1-47.6-0.1
	c-3.8,0-3.8,0-3.8,3.8c0,5.6,0,11.2,0,16.8c0.1,17.5,0.2,34.9,0.3,52.4c0,2.2,0.2,4.4,0.2,6.6c0,1.3,0,2.7,0,4.5
	c-0.9-0.4-1.5-0.6-1.9-0.9c-3.1-3-6.2-6-9.3-9c-4.8-4.7-9.5-9.5-14.3-14.2c-5.1-5.1-10.2-10.3-15.4-15.4
	c-6.1-6.1-12.3-12.3-18.5-18.4c-0.3-0.3-0.7-0.5-1.3-1c-1.6,1.6-3.3,3.1-4.9,4.7c-6.1,6.1-12.3,12.3-18.4,18.5
	c-4.3,4.4-8.4,8.9-12.6,13.3c-5.5,5.6-11.1,11.1-16.6,16.7c-1.6,1.6-3.1,3.3-4.7,4.9c-0.2,0.2-0.4,0.5-0.6,0.7
	c-0.8,0.5-1.5,0.2-1.6-0.8c-0.1-1,0-2.1,0-3.2c0-11.5,0.1-23,0.1-34.5c0-12.1,0-24.2-0.1-36.3c0-2.5,0.1-5,0.1-7.5
	c0-0.4-0.1-0.9-0.2-1.6c-2.7-0.1-5.4-0.2-8.1-0.3c-10.2-0.1-20.4-0.1-30.6-0.1c-6.1,0-12.2,0.2-18.3,0.2c-6.8,0-13.6-0.1-20.4-0.2
	c-1.5,0-3,0.1-4.5,0c-0.5,0-1.3-0.4-1.4-0.7c-0.1-0.4,0.2-1.1,0.6-1.5c0.9-1,1.8-1.8,2.8-2.7c7.8-7.7,15.5-15.5,23.4-23.2
	c7.4-7.3,14.9-14.4,22.3-21.7c3-2.9,5.9-5.9,8.8-8.9c0.3-0.3,0.4-0.6,0.7-1c-0.4-0.5-0.8-1.1-1.2-1.6c-3.3-3.3-6.6-6.7-9.9-10
	c-4-3.9-8-7.8-12-11.8c-3.7-3.7-7.3-7.4-11-11.1c-5-5-10-10.1-15-15.1c-2.6-2.6-5.3-5.2-7.9-7.8c-0.6-0.6-1-1.4-1.8-2.5
	c1.2-0.2,1.9-0.4,2.6-0.4c5.2,0.1,10.4,0.3,15.6,0.3c5.9,0.1,11.8,0,17.7,0.1c4.3,0,8.6,0.2,12.9,0.3c2,0,4.1,0,6.1,0
	c8.1,0,16.2,0.1,24.2,0.1c1.1,0,2.1,0,3.2,0c1.3-0.1,1.7-0.4,1.8-1.8c0-0.8-0.1-1.7-0.1-2.5c0-10.6,0-21.2,0-31.7
	c0-6,0.2-12.1,0.2-18.1c0-4.3-0.1-8.6-0.2-12.9c0-4.1,0-8.2,0-12.2c0-1.2-0.1-2.5,0.9-3.9c19.5,19.6,38.9,39.1,58.5,58.7
	c1-0.8,1.9-1.4,2.7-2.2c7-7,14-14,21-21c6.5-6.4,13-12.8,19.5-19.3c4.4-4.4,8.8-8.7,13.2-13.1c0.7-0.7,1.5-1.2,2.3-1.8
	c1.1,2.3,0.7,4.5,0.7,6.5c0,9.7,0,19.4,0,29c0,3.2-0.1,6.5-0.2,9.7c0,2.6,0,5.1,0,7.7c0.1,8.6,0.1,17.2,0.2,25.8c0,0.6,0,1.2,0,1.8
	c0,1.2,0.5,1.7,1.6,1.7c1.7,0,3.5-0.1,5.2,0c7.4,0,14.8,0,22.2,0.1c8.4,0,16.8,0.1,25.1,0.2c8.8,0,17.7,0,26.5,0
	c0.5,0,1,0.1,1.5,0.1c0.6,1.4-0.5,2-1.2,2.7c-4.5,4.5-9,8.9-13.5,13.4c-4.1,4-8.1,8.1-12.2,12.2c-7.3,7.3-14.6,14.6-21.9,22
	c-2.5,2.5-4.9,5.1-7.4,7.7c-1.1,1.1-1.1,1.3,0,2.4c5.2,5.2,10.5,10.5,15.7,15.7c1.1,1.1,2.8,1.8,3.6,3.1c0.9,1.4,1.9,2.5,3.1,3.6
	c9.4,9.3,18.9,18.5,28.3,27.8c1.8,1.7,3.6,3.5,5.3,5.3c0.6,0.6,1,1.3,1.5,1.9C395.9,307.7,395.8,307.9,395.7,308.1z M171.7,282.1
	c1.2,0.1,1.7,0.2,2.2,0.1c2.9-0.1,5.7-0.3,8.6-0.3c2.9,0,5.7,0.2,8.6,0.2c3.5,0.1,7.1,0.1,10.6,0.1c2.8,0,5.6,0,8.4,0
	c2.3,0,4.7-0.1,7,0c2,0.1,2.5,0.7,2.6,2.6c0,2.5,0,5,0,7.5c0,7.6-0.1,15.3-0.1,22.9c0,2.5-0.1,5,0,7.5c0,2.2,0.1,4.5,0.2,7.1
	c0.6-0.5,1-0.6,1.2-0.9c2.4-2.3,4.7-4.7,7.1-7c6.7-6.7,13.4-13.4,20-20c1.3-1.3,2.8-2.6,4.1-3.9c0.8-0.8,1.4-0.7,2.2-0.1
	c0.4,0.3,0.8,0.7,1.2,1c3.4,3.5,6.8,7,10.3,10.5c2.5,2.5,5.2,4.9,7.7,7.4c4,3.9,7.9,7.9,11.9,11.8c0.5,0.5,1,0.8,1.9,1.5
	c0.1-1.2,0.2-2,0.2-2.8c0-4.6,0-9.2,0-13.8c0-7,0-13.9,0-20.9c0-2.5-0.1-5-0.1-7.5c0-2.2,0-2.3,2.3-2.4c1-0.1,2.1,0.1,3.1,0.1
	c3.8,0,7.6-0.1,11.3-0.1c9.8,0,19.6,0.1,29.5,0.1c0.2,0,0.5-0.2,1-0.4c-2.1-2.2-4-4.3-6.1-6.3c-5.1-5.1-10.3-10.2-15.5-15.2
	c-1.8-1.8-3.6-3.7-5.4-5.5c-1.7-1.7-3.5-3.4-5.1-5.2c-1.1-1.2-1-1.8,0.1-2.9c0.9-0.9,1.8-1.8,2.8-2.7c4.2-4.1,8.4-8.2,12.6-12.4
	c4-4,7.9-8.1,11.9-12.1c1.4-1.4,2.8-2.9,4.5-4.8c-8.2-0.7-15.9,0-23.6-0.2c-7.7-0.1-15.5-0.2-23.3-0.2c-0.1-0.9-0.3-1.5-0.3-2.1
	c0-2.7,0-5.4,0-8.2c0-11.9-0.1-23.9-0.1-35.8c0-0.4-0.2-0.8-0.3-1.7c-11.1,11.3-22,22.3-33.1,33.5c-4.2-3.4-7.6-7.4-11.3-11
	c-3.8-3.7-7.4-7.5-11.2-11.2c-3.7-3.6-7.2-7.4-11.3-11.2c-0.1,0.9-0.2,1.3-0.2,1.8c0,4.5-0.1,8.9-0.1,13.4c0,9.7,0,19.4,0,29
	c0,2.9-0.1,3.1-3,3.2c-4.4,0.1-8.7-0.1-13.1-0.1c-9.7-0.1-19.4-0.1-29-0.1c-0.6,0-1.3,0.1-2.1,0.1c0.3,1.5,1.3,2.2,2.1,3.1
	c2.9,2.9,5.9,5.7,8.7,8.6c5.5,5.5,10.9,11.1,16.4,16.6c1.5,1.6,3.1,3.1,4.6,4.7c0.9,1,0.8,1.6-0.1,2.5c-0.6,0.6-1.4,1.2-2,1.8
	c-3.8,3.9-7.7,7.7-11.5,11.6c-5.6,5.6-11.3,11.1-17,16.7C172.9,280.6,172.5,281.2,171.7,282.1z"/>
</svg>
